<svg width="275" height="101" viewBox="0 0 275 101" fill="none" xmlns="http://www.w3.org/2000/svg">
<path d="M72.0624 88.6928H73.5728V93.864C73.5728 94.5467 73.7456 95.0395 74.0912 95.3424C74.4411 95.6453 74.8869 95.7968 75.4288 95.7968C75.9749 95.7968 76.4208 95.6453 76.7664 95.3424C77.112 95.0395 77.2848 94.5467 77.2848 93.864V88.6928H78.7952V93.864C78.7952 94.5637 78.6608 95.1611 78.392 95.656C78.1232 96.1509 77.7371 96.5285 77.2336 96.7888C76.7344 97.0491 76.1328 97.1792 75.4288 97.1792C74.7248 97.1792 74.1211 97.0491 73.6176 96.7888C73.1184 96.5285 72.7344 96.1509 72.4656 95.656C72.1968 95.1611 72.0624 94.5637 72.0624 93.864V88.6928ZM81.0023 88.6928H82.6535L86.4295 94.6192H86.3143V88.6928H87.8247V97H86.2887L82.2695 90.7152H82.5127V97H81.0023V88.6928ZM90.2029 97V88.6928H91.7133V97H90.2029ZM97.2773 97.1792C96.5392 97.1792 95.8864 97.0171 95.3189 96.6928C94.7557 96.3685 94.3141 95.8843 93.9941 95.24C93.6741 94.5957 93.5141 93.7957 93.5141 92.84C93.5141 91.8672 93.6741 91.0629 93.9941 90.4272C94.3141 89.7872 94.7557 89.3115 95.3189 89C95.8864 88.6843 96.5392 88.5264 97.2773 88.5264C98.0197 88.5264 98.6746 88.6885 99.2421 89.0128C99.8096 89.3328 100.253 89.8128 100.573 90.4528C100.893 91.0928 101.053 91.8885 101.053 92.84C101.053 93.8085 100.893 94.6149 100.573 95.2592C100.253 95.9035 99.8096 96.3856 99.2421 96.7056C98.6746 97.0213 98.0197 97.1792 97.2773 97.1792ZM97.2773 95.8096C97.9557 95.8096 98.4933 95.5536 98.8901 95.0416C99.2912 94.5296 99.4917 93.7915 99.4917 92.8272C99.4917 91.8971 99.2912 91.1739 98.8901 90.6576C98.4933 90.1413 97.9557 89.8832 97.2773 89.8832C96.6117 89.8832 96.0784 90.1435 95.6773 90.664C95.2762 91.1803 95.0757 91.9056 95.0757 92.84C95.0757 93.8 95.2762 94.536 95.6773 95.048C96.0784 95.5557 96.6117 95.8096 97.2773 95.8096ZM102.815 88.6928H104.466L108.242 94.6192H108.127V88.6928H109.637V97H108.101L104.082 90.7152H104.325V97H102.815V88.6928ZM118.274 97.1792C117.544 97.1792 116.908 97.0064 116.367 96.6608C115.829 96.3109 115.411 95.8117 115.112 95.1632C114.813 94.5147 114.664 93.736 114.664 92.8272C114.664 91.8885 114.818 91.1013 115.125 90.4656C115.436 89.8256 115.863 89.3435 116.405 89.0192C116.951 88.6907 117.574 88.5264 118.274 88.5264C119.242 88.5264 119.997 88.7611 120.539 89.2304C121.085 89.6997 121.435 90.3099 121.589 91.0608L119.976 91.3552C119.844 90.92 119.633 90.568 119.343 90.2992C119.052 90.0304 118.696 89.896 118.274 89.896C117.903 89.896 117.568 90.0048 117.269 90.2224C116.97 90.4357 116.731 90.76 116.552 91.1952C116.377 91.6304 116.29 92.1744 116.29 92.8272C116.29 93.4416 116.367 93.9707 116.52 94.4144C116.678 94.8581 116.904 95.1995 117.199 95.4384C117.493 95.6773 117.851 95.7968 118.274 95.7968C118.816 95.7968 119.234 95.6539 119.528 95.368C119.827 95.0779 119.976 94.7088 119.976 94.2608H121.589C121.589 94.8795 121.455 95.4064 121.186 95.8416C120.921 96.2725 120.541 96.6032 120.047 96.8336C119.552 97.064 118.961 97.1792 118.274 97.1792ZM126.54 97.1792C125.802 97.1792 125.149 97.0171 124.581 96.6928C124.018 96.3685 123.577 95.8843 123.257 95.24C122.937 94.5957 122.777 93.7957 122.777 92.84C122.777 91.8672 122.937 91.0629 123.257 90.4272C123.577 89.7872 124.018 89.3115 124.581 89C125.149 88.6843 125.802 88.5264 126.54 88.5264C127.282 88.5264 127.937 88.6885 128.505 89.0128C129.072 89.3328 129.516 89.8128 129.836 90.4528C130.156 91.0928 130.316 91.8885 130.316 92.84C130.316 93.8085 130.156 94.6149 129.836 95.2592C129.516 95.9035 129.072 96.3856 128.505 96.7056C127.937 97.0213 127.282 97.1792 126.54 97.1792ZM126.54 95.8096C127.218 95.8096 127.756 95.5536 128.153 95.0416C128.554 94.5296 128.754 93.7915 128.754 92.8272C128.754 91.8971 128.554 91.1739 128.153 90.6576C127.756 90.1413 127.218 89.8832 126.54 89.8832C125.874 89.8832 125.341 90.1435 124.94 90.664C124.539 91.1803 124.338 91.9056 124.338 92.84C124.338 93.8 124.539 94.536 124.94 95.048C125.341 95.5557 125.874 95.8096 126.54 95.8096ZM132.103 88.6928H134.266L136.609 93.7744H136.481L138.823 88.6928H140.909V97H139.386V90.4336H139.617L137.031 96.0912H136.045L133.473 90.4592H133.613V97H132.103V88.6928ZM143.29 88.6928H145.454L147.796 93.7744H147.668L150.01 88.6928H152.097V97H150.574V90.4336H150.804L148.218 96.0912H147.233L144.66 90.4592H144.801V97H143.29V88.6928ZM154.35 88.6928H155.86V93.864C155.86 94.5467 156.033 95.0395 156.379 95.3424C156.729 95.6453 157.174 95.7968 157.716 95.7968C158.262 95.7968 158.708 95.6453 159.054 95.3424C159.399 95.0395 159.572 94.5467 159.572 93.864V88.6928H161.083V93.864C161.083 94.5637 160.948 95.1611 160.679 95.656C160.411 96.1509 160.025 96.5285 159.521 96.7888C159.022 97.0491 158.42 97.1792 157.716 97.1792C157.012 97.1792 156.409 97.0491 155.905 96.7888C155.406 96.5285 155.022 96.1509 154.753 95.656C154.484 95.1611 154.35 94.5637 154.35 93.864V88.6928ZM163.29 88.6928H164.941L168.717 94.6192H168.602V88.6928H170.112V97H168.576L164.557 90.7152H164.8V97H163.29V88.6928ZM172.49 97V88.6928H174.001V97H172.49ZM179.283 97.1792C178.707 97.1792 178.176 97.0789 177.69 96.8784C177.207 96.6779 176.815 96.3728 176.512 95.9632C176.213 95.5536 176.053 95.0331 176.032 94.4016H177.517C177.517 94.7216 177.596 94.984 177.754 95.1888C177.911 95.3936 178.123 95.5472 178.387 95.6496C178.656 95.7477 178.95 95.7968 179.27 95.7968C179.578 95.7968 179.851 95.7563 180.09 95.6752C180.333 95.5941 180.523 95.4789 180.659 95.3296C180.8 95.176 180.87 94.9947 180.87 94.7856C180.87 94.5083 180.785 94.2907 180.614 94.1328C180.448 93.9749 180.179 93.8299 179.808 93.6976L178.17 93.0448C177.53 92.7931 177.039 92.5008 176.698 92.168C176.356 91.8352 176.186 91.3765 176.186 90.792C176.186 90.1179 176.452 89.5717 176.986 89.1536C177.519 88.7355 178.263 88.5264 179.219 88.5264C180.149 88.5264 180.868 88.744 181.376 89.1792C181.884 89.6101 182.172 90.2117 182.24 90.984H180.755C180.7 90.6555 180.55 90.3931 180.307 90.1968C180.064 89.9963 179.701 89.896 179.219 89.896C178.793 89.896 178.455 89.9856 178.208 90.1648C177.961 90.3397 177.837 90.5616 177.837 90.8304C177.837 91.0608 177.914 91.2443 178.067 91.3808C178.225 91.5131 178.468 91.6411 178.797 91.7648L180.614 92.4688C181.229 92.7077 181.7 93.0085 182.029 93.3712C182.357 93.7339 182.522 94.1883 182.522 94.7344C182.522 95.2336 182.396 95.6667 182.144 96.0336C181.892 96.3963 181.525 96.6779 181.043 96.8784C180.561 97.0789 179.974 97.1792 179.283 97.1792ZM183.439 89.9984V88.6928H190.095V89.9984H187.183L187.523 89.6528V97H186.012V89.6528L186.351 89.9984H183.439ZM191.34 97V88.6928H196.678V89.9984H192.851V92.1872H196.447V93.4928H192.851V95.6816H196.678V97H191.34ZM204.522 87.3488L205.61 88.1424C205.119 88.6544 204.71 89.1664 204.381 89.6784C204.057 90.1904 203.814 90.7152 203.652 91.2528C203.49 91.7861 203.409 92.3451 203.409 92.9296C203.409 93.8 203.592 94.6213 203.959 95.3936C204.326 96.1616 204.876 96.9275 205.61 97.6912L204.522 98.5104C203.605 97.6955 202.929 96.8208 202.493 95.8864C202.062 94.952 201.847 93.9664 201.847 92.9296C201.847 91.8843 202.062 90.8944 202.493 89.96C202.929 89.0256 203.605 88.1552 204.522 87.3488ZM206.102 89.9984V88.6928H212.758V89.9984H209.846L210.185 89.6528V97H208.675V89.6528L209.014 89.9984H206.102ZM212.928 97V90.7664H214.438V97H212.928ZM214.067 94.2736C214.067 93.4587 214.159 92.7845 214.342 92.2512C214.526 91.7179 214.771 91.3232 215.078 91.0672C215.39 90.8069 215.735 90.6768 216.115 90.6768C216.218 90.6768 216.314 90.6832 216.403 90.696C216.497 90.7088 216.589 90.728 216.678 90.7536L216.653 92.264C216.542 92.2384 216.422 92.2171 216.294 92.2C216.166 92.1829 216.051 92.1744 215.949 92.1744C215.616 92.1744 215.336 92.2555 215.11 92.4176C214.888 92.5755 214.72 92.8101 214.605 93.1216C214.494 93.4331 214.438 93.8171 214.438 94.2736H214.067ZM220.398 97.1792C219.83 97.1792 219.316 97.0576 218.855 96.8144C218.399 96.5712 218.036 96.2085 217.767 95.7264C217.498 95.24 217.364 94.632 217.364 93.9024C217.364 93.16 217.498 92.5456 217.767 92.0592C218.036 91.5728 218.399 91.2101 218.855 90.9712C219.316 90.7323 219.83 90.6128 220.398 90.6128C220.957 90.6128 221.462 90.7323 221.914 90.9712C222.371 91.2101 222.734 91.5728 223.002 92.0592C223.271 92.5456 223.406 93.16 223.406 93.9024C223.406 94.632 223.271 95.24 223.002 95.7264C222.734 96.2085 222.371 96.5712 221.914 96.8144C221.462 97.0576 220.957 97.1792 220.398 97.1792ZM220.346 95.8608C220.645 95.8608 220.91 95.7883 221.14 95.6432C221.375 95.4939 221.558 95.2741 221.69 94.984C221.827 94.6939 221.895 94.3333 221.895 93.9024C221.895 93.2453 221.765 92.7504 221.505 92.4176C221.249 92.0848 220.897 91.9184 220.449 91.9184C220.146 91.9184 219.877 91.9931 219.642 92.1424C219.408 92.2875 219.222 92.5072 219.086 92.8016C218.953 93.096 218.887 93.4629 218.887 93.9024C218.887 94.5509 219.017 95.0395 219.278 95.368C219.542 95.6965 219.898 95.8608 220.346 95.8608ZM227.302 97.1792C226.935 97.1792 226.598 97.1109 226.291 96.9744C225.988 96.8379 225.745 96.6288 225.561 96.3472C225.382 96.0656 225.292 95.7072 225.292 95.272V89.1408H226.803V95.2208C226.803 95.7328 227.046 95.9888 227.532 95.9888C227.682 95.9888 227.831 95.9717 227.98 95.9376C228.13 95.9035 228.3 95.8523 228.492 95.784L228.71 96.8464C228.471 96.9403 228.239 97.0192 228.012 97.0832C227.786 97.1472 227.55 97.1792 227.302 97.1792ZM224.422 91.7904V90.792H228.492V91.7904H224.422ZM232.57 97.1792C231.972 97.1792 231.458 97.0981 231.027 96.936C230.601 96.7696 230.272 96.5328 230.042 96.2256C229.811 95.9141 229.694 95.5408 229.69 95.1056H231.085C231.098 95.4128 231.219 95.6368 231.45 95.7776C231.68 95.9184 231.994 95.9888 232.391 95.9888C232.608 95.9888 232.8 95.9568 232.967 95.8928C233.137 95.8288 233.269 95.7413 233.363 95.6304C233.457 95.5195 233.504 95.3957 233.504 95.2592C233.504 95.0843 233.44 94.9477 233.312 94.8496C233.188 94.7472 232.988 94.6533 232.711 94.568L231.354 94.0816C230.867 93.9067 230.494 93.6763 230.234 93.3904C229.973 93.1045 229.843 92.7632 229.843 92.3664C229.843 91.8416 230.08 91.4192 230.554 91.0992C231.032 90.7749 231.669 90.6128 232.467 90.6128C233.261 90.6128 233.873 90.7877 234.304 91.1376C234.739 91.4832 234.963 91.9227 234.976 92.456H233.555C233.534 92.2512 233.436 92.0891 233.261 91.9696C233.086 91.8501 232.821 91.7904 232.467 91.7904C232.147 91.7904 231.896 91.8565 231.712 91.9888C231.533 92.1168 231.443 92.2683 231.443 92.4432C231.443 92.7376 231.695 92.9595 232.199 93.1088L233.671 93.6592C234.148 93.8213 234.52 94.0304 234.784 94.2864C235.049 94.5424 235.181 94.8667 235.181 95.2592C235.181 95.5877 235.07 95.8992 234.848 96.1936C234.631 96.4837 234.325 96.7205 233.933 96.904C233.54 97.0875 233.086 97.1792 232.57 97.1792ZM237.003 97V88.2192H238.513V97H237.003ZM238.309 93.1472L240.971 90.792H243.019L238.309 94.7088V93.1472ZM241.329 97L238.552 93.0448L239.985 92.6992L243.173 97H241.329ZM243.531 90.792H245.246L246.897 95.6816H246.628L248.049 90.792H249.585L247.204 98.1264C246.961 98.8603 246.66 99.3915 246.302 99.72C245.948 100.049 245.515 100.213 245.003 100.213C244.708 100.213 244.42 100.179 244.139 100.11C243.861 100.046 243.578 99.944 243.288 99.8032V98.472C243.522 98.6171 243.748 98.7237 243.966 98.792C244.188 98.8603 244.41 98.8944 244.632 98.8944C244.832 98.8944 245.007 98.8389 245.156 98.728C245.31 98.6213 245.442 98.4699 245.553 98.2736C245.664 98.0816 245.758 97.8576 245.835 97.6016L246.027 97L243.531 90.792ZM253.245 97.1792C252.647 97.1792 252.133 97.0981 251.702 96.936C251.276 96.7696 250.947 96.5328 250.717 96.2256C250.486 95.9141 250.369 95.5408 250.365 95.1056H251.76C251.773 95.4128 251.894 95.6368 252.125 95.7776C252.355 95.9184 252.669 95.9888 253.066 95.9888C253.283 95.9888 253.475 95.9568 253.642 95.8928C253.812 95.8288 253.944 95.7413 254.038 95.6304C254.132 95.5195 254.179 95.3957 254.179 95.2592C254.179 95.0843 254.115 94.9477 253.987 94.8496C253.863 94.7472 253.663 94.6533 253.386 94.568L252.029 94.0816C251.542 93.9067 251.169 93.6763 250.909 93.3904C250.648 93.1045 250.518 92.7632 250.518 92.3664C250.518 91.8416 250.755 91.4192 251.229 91.0992C251.707 90.7749 252.344 90.6128 253.142 90.6128C253.936 90.6128 254.548 90.7877 254.979 91.1376C255.414 91.4832 255.638 91.9227 255.651 92.456H254.23C254.209 92.2512 254.111 92.0891 253.936 91.9696C253.761 91.8501 253.496 91.7904 253.142 91.7904C252.822 91.7904 252.571 91.8565 252.387 91.9888C252.208 92.1168 252.118 92.2683 252.118 92.4432C252.118 92.7376 252.37 92.9595 252.874 93.1088L254.346 93.6592C254.823 93.8213 255.195 94.0304 255.459 94.2864C255.724 94.5424 255.856 94.8667 255.856 95.2592C255.856 95.5877 255.745 95.8992 255.523 96.1936C255.306 96.4837 255 96.7205 254.608 96.904C254.215 97.0875 253.761 97.1792 253.245 97.1792ZM259.777 97.1792C259.41 97.1792 259.073 97.1109 258.766 96.9744C258.463 96.8379 258.22 96.6288 258.036 96.3472C257.857 96.0656 257.768 95.7072 257.768 95.272V89.1408H259.278V95.2208C259.278 95.7328 259.521 95.9888 260.008 95.9888C260.157 95.9888 260.306 95.9717 260.456 95.9376C260.605 95.9035 260.776 95.8523 260.968 95.784L261.185 96.8464C260.946 96.9403 260.714 97.0192 260.488 97.0832C260.261 97.1472 260.025 97.1792 259.777 97.1792ZM256.897 91.7904V90.792H260.968V91.7904H256.897ZM265.045 97.1792C264.516 97.1792 264.031 97.0427 263.592 96.7696C263.152 96.4965 262.8 96.1147 262.536 95.624C262.271 95.1291 262.139 94.5509 262.139 93.8896C262.139 93.2069 262.269 92.6203 262.53 92.1296C262.794 91.6389 263.146 91.2635 263.586 91.0032C264.025 90.7429 264.511 90.6128 265.045 90.6128C265.54 90.6128 265.966 90.7131 266.325 90.9136C266.687 91.1099 266.978 91.3787 267.195 91.72C267.417 92.0571 267.566 92.4389 267.643 92.8656C267.72 93.2923 267.724 93.7317 267.656 94.184H263.342V93.3648H266.587L266.293 93.5568C266.306 93.3563 266.295 93.1536 266.261 92.9488C266.231 92.744 266.171 92.5563 266.082 92.3856C265.992 92.2149 265.864 92.0784 265.698 91.976C265.535 91.8693 265.326 91.816 265.07 91.816C264.763 91.816 264.503 91.8928 264.29 92.0464C264.076 92.2 263.914 92.4091 263.803 92.6736C263.692 92.9381 263.637 93.2368 263.637 93.5696V94.1712C263.637 94.5211 263.688 94.8304 263.79 95.0992C263.897 95.368 264.053 95.5792 264.258 95.7328C264.467 95.8864 264.729 95.9632 265.045 95.9632C265.339 95.9632 265.587 95.8949 265.787 95.7584C265.988 95.6219 266.116 95.4171 266.171 95.144H267.694C267.63 95.5451 267.479 95.8992 267.24 96.2064C267.005 96.5093 266.7 96.7483 266.325 96.9232C265.949 97.0939 265.523 97.1792 265.045 97.1792ZM269.835 98.5104L268.735 97.6912C269.473 96.9275 270.025 96.1616 270.392 95.3936C270.763 94.6213 270.949 93.8 270.949 92.9296C270.949 92.3451 270.866 91.7861 270.699 91.2528C270.537 90.7152 270.292 90.1904 269.963 89.6784C269.635 89.1664 269.225 88.6544 268.735 88.1424L269.835 87.3488C270.744 88.1552 271.416 89.0256 271.851 89.96C272.291 90.8944 272.511 91.8843 272.511 92.9296C272.511 93.6208 272.415 94.2907 272.223 94.9392C272.031 95.5835 271.736 96.2043 271.339 96.8016C270.943 97.3989 270.441 97.9685 269.835 98.5104Z" fill="#CC0000"/>
<g clip-path="url(#clip0_549_213)">
<mask id="mask0_549_213" style="mask-type:luminance" maskUnits="userSpaceOnUse" x="70" y="12" width="205" height="71">
<path d="M274.014 12.1289H70.1138V82.5621H274.014V12.1289Z" fill="white"/>
</mask>
<g mask="url(#mask0_549_213)">
<path fill-rule="evenodd" clip-rule="evenodd" d="M180.466 63.065L190.48 63.0653L190.479 82.3858L180.464 82.3855L180.466 63.065ZM154.008 82.3844L154.043 63.0639C161.486 63.0641 166.73 63.14 174.207 63.1025C176.169 63.1403 178.368 64.1612 178.401 66.0518V71.95L170.282 71.9496L170.282 69.7946C170.248 67.8663 170.282 67.5638 168.286 67.4882C167.372 67.4504 166.121 67.3746 166.053 67.5258L166.019 82.3849L154.008 82.3844ZM126.605 63.0628L137.566 63.0633L141.863 71.9865L145.213 63.0635L151.911 63.0638L144.874 82.4219L134.859 82.4971L126.605 63.0628ZM70.1388 66.0478C70.1388 63.6658 71.5598 63.0986 73.9619 63.0988C80.9313 63.099 85.6339 63.0992 92.6372 63.0995C94.5656 63.0996 95.5129 64.1961 95.5129 66.0487C95.5127 71.1907 95.5126 74.7826 95.5124 79.9625C95.5123 81.9664 94.5651 82.4201 92.6367 82.42C85.6334 82.4198 80.4571 82.4195 73.4877 82.4193C71.0856 82.4192 70.1382 81.9655 70.1384 79.4322C70.1385 74.6306 70.1386 70.8495 70.1388 66.0478ZM82.0475 74.1016C82.0475 71.7573 82.0475 71.0768 82.0476 68.7705C82.0476 68.2034 83.1303 67.5228 83.5363 67.5228C84.2467 67.5228 85.194 67.5229 85.9383 67.5607C86.3781 67.5229 87.3931 68.1656 87.3931 68.7328C87.3931 71.0392 87.3929 71.7198 87.3929 74.0639C87.3928 74.7067 86.3779 75.6898 85.9381 75.6898C85.2276 75.6896 84.2465 75.6896 83.536 75.6896C83.0962 75.6896 82.0474 74.7444 82.0475 74.1016ZM174.174 12.2111V18.1851L180.839 18.1854V28.5829L174.173 28.5825C174.173 33.1197 174.478 37.3166 174.343 41.4755C174.207 45.1808 174.207 45.1808 177.996 45.2567L180.838 45.4081V52.4406L156.073 52.4018C154.956 52.3638 154.178 51.8346 154.144 50.5491C154.145 43.025 154.145 36.1059 154.145 28.5818L147.48 28.6195L147.514 21.3979C156.074 20.5663 157.055 20.6043 163.619 12.1353L174.174 12.2111ZM214.13 12.2127V18.1865L220.795 18.1867V28.5844L214.129 28.584C214.129 33.1212 214.298 37.318 214.298 41.4771C214.298 45.1824 214.806 45.1824 217.648 45.1824L220.794 45.4093V52.442L196.03 52.4032C194.912 52.3653 194.134 51.836 194.101 50.5505C194.101 43.0265 194.101 36.1075 194.102 28.5833L187.435 28.6208L187.47 21.3993C196.03 20.5678 197.011 20.6056 203.574 12.1366L214.13 12.2127ZM70.1403 12.7745L70.1391 52.6255L89.9309 52.6262L89.9322 12.7752L70.1403 12.7745ZM97.2384 63.0997L108.132 63.0623C108.098 67.1078 107.963 72.5145 107.997 75.6149C107.997 76.598 107.997 76.9004 111.075 77.203C113.647 76.8628 113.072 76.5603 113.647 75.6151L113.782 63.0624L124.236 63.0627L124.101 82.3834L113.646 82.3829L113.647 80.0388C111.82 82.4207 116.454 82.4965 100.79 82.4203C98.7603 82.4958 97.2379 81.3615 97.238 78.9039L97.2384 63.0997ZM97.0706 17.9931L114.393 17.9938C114.359 25.2532 114.358 34.7811 114.392 40.3769C114.426 42.1161 114.392 42.6454 119.433 43.175C123.662 42.5701 122.715 42.0787 123.662 40.415L123.663 17.9942L140.816 17.9947L140.815 52.439L123.662 52.4383L123.696 48.2416C122.647 48.3928 124.068 52.6653 118.35 52.665C115.474 52.6649 111.11 52.6648 103.092 52.6646C99.7761 52.8156 97.3402 51.1897 97.3404 46.766L97.0706 17.9931ZM203.607 67.5272L208.682 67.603C210.102 68.1702 209.968 70.2875 208.851 70.8546L203.607 70.8544V67.5272ZM258.347 67.6804L263.422 67.7563C264.843 68.3235 264.707 70.4407 263.592 71.0078L258.347 71.0076V67.6804ZM192.475 79.8526C192.475 74.3703 192.475 70.9674 192.476 65.523C192.476 64.4264 192.983 63.1031 194.743 63.1032L217.141 63.104C218.29 63.1042 219.035 63.8225 219.068 64.8056C219.135 67.5278 219.135 69.7586 219.135 71.9136C219.135 72.7833 218.628 73.426 218.053 73.426L203.607 73.501V76.3746L207.903 76.3747C209.257 76.3748 209.865 76.3748 209.798 75.5808V74.5599L219.135 74.5602C219.135 76.7155 219.135 77.6607 219.135 79.8536C219.135 81.177 217.884 82.3112 216.26 82.3111C208.41 82.273 202.591 82.3106 194.742 82.3104C193.22 82.3858 192.543 81.554 192.475 79.8526ZM247.216 80.0059C247.216 74.5236 247.216 71.1206 247.216 65.6761C247.216 64.5797 247.724 63.2564 249.483 63.2564L271.88 63.2572C273.031 63.2574 273.775 63.9758 273.809 64.9588C273.876 67.681 273.876 69.9118 273.876 72.0669C273.876 72.9365 273.368 73.5793 272.794 73.5792L258.347 73.6543L258.346 76.5278L262.644 76.528C263.998 76.528 264.606 76.528 264.538 75.7341V74.7132L273.876 74.7135C273.876 76.8687 273.876 77.8139 273.876 80.0068C273.876 81.3302 272.624 82.4644 270.999 82.4644C263.151 82.4262 257.331 82.4639 249.482 82.4635C247.961 82.5391 247.284 81.7073 247.216 80.0059ZM221.063 82.4625L221.064 63.2555C228.507 63.2557 233.785 63.3315 241.228 63.2562C243.19 63.3319 245.39 64.3527 245.457 66.2433L245.456 72.0658L237.337 72.0656V69.9105C237.27 68.0577 237.337 67.7553 235.307 67.6796C234.394 67.604 233.142 67.5661 233.108 67.6795L233.04 82.463L221.063 82.4625ZM227.188 48.3967C227.188 38.6041 227.223 33.5375 227.189 23.7449C227.189 20.5312 227.29 17.8467 232.568 17.8469C245.595 17.8474 255.947 17.8477 268.972 17.8483C272.863 17.8484 273.979 20.0036 273.979 23.7467V32.405C273.979 34.5224 273.979 36.6775 271.61 36.5262L246.439 36.5251V43.0284L252.697 43.0286C255.066 43.0287 257.096 42.8398 257.096 40.3443V38.227L273.978 38.1142C273.978 42.0464 273.944 44.5039 273.978 48.3983C273.911 50.818 272.049 52.6707 269.208 52.6705C255.472 52.5945 245.188 52.7075 231.485 52.6693C228.879 52.8581 227.289 51.5348 227.188 48.3967ZM246.44 27.4888L255.371 27.4512C256.792 27.6027 257.097 27.5269 257.097 29.115C257.097 30.0602 257.097 29.7578 257.097 30.7029C257.097 31.2323 257.164 32.4044 255.541 32.3287L246.439 32.3284L246.44 27.4888ZM180.905 60.1158L189.972 60.1161C190.244 60.1161 190.447 60.3431 190.447 60.6455V61.1748C190.447 61.4773 190.244 61.7041 189.972 61.7041L180.905 61.7037C180.635 61.7037 180.432 61.4769 180.432 61.1744V60.6451C180.432 60.3426 180.635 60.1158 180.905 60.1158ZM198.769 60.1164L212.065 60.117C212.471 60.117 212.742 60.3438 212.742 60.6463V61.1756C212.742 61.478 212.471 61.705 212.065 61.7049L198.769 61.7044C198.362 61.7044 198.093 61.4776 198.093 61.175V60.6458C198.093 60.3433 198.362 60.1164 198.769 60.1164Z" fill="#CC0000"/>
</g>
</g>
<path d="M70.855 9V2.8345H73.0305C73.724 2.8345 74.2639 3.0055 74.6503 3.3475C75.0398 3.6895 75.2345 4.174 75.2345 4.801C75.2345 5.42167 75.0398 5.903 74.6503 6.245C74.2639 6.587 73.724 6.758 73.0305 6.758H71.9855V9H70.855ZM71.9855 5.7795H73.0305C73.3788 5.7795 73.6417 5.68767 73.819 5.504C73.9963 5.32033 74.085 5.086 74.085 4.801C74.085 4.50967 73.9963 4.27058 73.819 4.08375C73.6417 3.89692 73.3788 3.8035 73.0305 3.8035H71.9855V5.7795ZM76.4417 9V4.3735H77.5627V9H76.4417ZM77.2872 6.9765C77.2872 6.37167 77.3553 5.87133 77.4915 5.4755C77.6277 5.07967 77.8097 4.78675 78.0377 4.59675C78.2689 4.40358 78.5254 4.307 78.8072 4.307C78.8832 4.307 78.9545 4.31175 79.021 4.32125C79.0907 4.33075 79.1587 4.345 79.2252 4.364L79.2062 5.485C79.1239 5.466 79.0352 5.45017 78.9402 5.4375C78.8452 5.42483 78.7597 5.4185 78.6837 5.4185C78.4367 5.4185 78.2293 5.47867 78.0615 5.599C77.8968 5.71617 77.7717 5.89033 77.6862 6.1215C77.6039 6.35267 77.5627 6.63767 77.5627 6.9765H77.2872ZM82.0332 9.133C81.6121 9.133 81.2305 9.04275 80.8885 8.86225C80.5497 8.68175 80.2805 8.41258 80.081 8.05475C79.8815 7.69375 79.7817 7.2425 79.7817 6.701C79.7817 6.15 79.8815 5.694 80.081 5.333C80.2805 4.972 80.5497 4.70283 80.8885 4.5255C81.2305 4.34817 81.6121 4.2595 82.0332 4.2595C82.4481 4.2595 82.8233 4.34817 83.159 4.5255C83.4978 4.70283 83.767 4.972 83.9665 5.333C84.166 5.694 84.2657 6.15 84.2657 6.701C84.2657 7.2425 84.166 7.69375 83.9665 8.05475C83.767 8.41258 83.4978 8.68175 83.159 8.86225C82.8233 9.04275 82.4481 9.133 82.0332 9.133ZM81.9952 8.1545C82.2169 8.1545 82.4132 8.10067 82.5842 7.993C82.7584 7.88217 82.8946 7.71908 82.9927 7.50375C83.0941 7.28842 83.1447 7.02083 83.1447 6.701C83.1447 6.21333 83.0482 5.846 82.855 5.599C82.665 5.352 82.4037 5.2285 82.0712 5.2285C81.8464 5.2285 81.6469 5.28392 81.4727 5.39475C81.2986 5.50242 81.1608 5.6655 81.0595 5.884C80.9613 6.1025 80.9122 6.37483 80.9122 6.701C80.9122 7.18233 81.0088 7.54492 81.202 7.78875C81.3983 8.03258 81.6627 8.1545 81.9952 8.1545ZM85.6471 9V2.483H86.7681V9H85.6471ZM90.3086 9.133C89.916 9.133 89.5565 9.03167 89.2304 8.829C88.9042 8.62633 88.643 8.34292 88.4466 7.97875C88.2503 7.61142 88.1521 7.18233 88.1521 6.6915C88.1521 6.18483 88.2487 5.74942 88.4419 5.38525C88.6382 5.02108 88.8995 4.74242 89.2256 4.54925C89.5518 4.35608 89.9128 4.2595 90.3086 4.2595C90.676 4.2595 90.9926 4.33392 91.2586 4.48275C91.5278 4.62842 91.7431 4.82792 91.9046 5.08125C92.0693 5.33142 92.1801 5.61483 92.2371 5.9315C92.2941 6.24817 92.2973 6.57433 92.2466 6.91H89.0451V6.302H91.4534L91.2349 6.4445C91.2444 6.29567 91.2365 6.14525 91.2111 5.99325C91.189 5.84125 91.1446 5.70192 91.0781 5.57525C91.0116 5.44858 90.9166 5.34725 90.7931 5.27125C90.6728 5.19208 90.5176 5.1525 90.3276 5.1525C90.0996 5.1525 89.9065 5.2095 89.7481 5.3235C89.5898 5.4375 89.4695 5.59267 89.3871 5.789C89.3048 5.98533 89.2636 6.207 89.2636 6.454V6.9005C89.2636 7.16017 89.3016 7.38975 89.3776 7.58925C89.4568 7.78875 89.5724 7.9455 89.7244 8.0595C89.8795 8.1735 90.0743 8.2305 90.3086 8.2305C90.5271 8.2305 90.7108 8.17983 90.8596 8.0785C91.0085 7.97717 91.1035 7.82517 91.1446 7.6225H92.2751C92.2276 7.92017 92.1152 8.183 91.9379 8.411C91.7637 8.63583 91.5373 8.81317 91.2586 8.943C90.98 9.06967 90.6633 9.133 90.3086 9.133ZM89.9191 3.7085L89.3824 3.2715L91.1589 1.49975L91.9094 2.10775L89.9191 3.7085ZM95.2322 9.133C94.9599 9.133 94.7097 9.08233 94.4817 8.981C94.2569 8.87967 94.0764 8.7245 93.9402 8.5155C93.8072 8.3065 93.7407 8.0405 93.7407 7.7175V3.167H94.8617V7.6795C94.8617 8.0595 95.0422 8.2495 95.4032 8.2495C95.5141 8.2495 95.6249 8.23683 95.7357 8.2115C95.8466 8.18617 95.9732 8.14817 96.1157 8.0975L96.2772 8.886C96.0999 8.95567 95.9273 9.01425 95.7595 9.06175C95.5916 9.10925 95.4159 9.133 95.2322 9.133ZM93.0947 5.1335V4.3925H96.1157V5.1335H93.0947ZM100.405 9L100.263 7.879V6.0265C100.263 5.7035 100.196 5.46442 100.063 5.30925C99.9334 5.15408 99.7118 5.0765 99.3983 5.0765C99.2178 5.0765 99.061 5.10342 98.928 5.15725C98.795 5.21108 98.6921 5.28867 98.6193 5.39C98.5496 5.48817 98.5148 5.6085 98.5148 5.751H97.2893C97.2893 5.40267 97.3732 5.11925 97.541 4.90075C97.7089 4.67908 97.9495 4.51758 98.263 4.41625C98.5797 4.31175 98.9581 4.2595 99.3983 4.2595C99.7973 4.2595 100.146 4.32442 100.443 4.45425C100.741 4.58092 100.972 4.77725 101.137 5.04325C101.301 5.30925 101.384 5.64967 101.384 6.0645V9H100.405ZM98.8948 9.133C98.4989 9.133 98.168 9.06492 97.902 8.92875C97.6392 8.78942 97.4413 8.60733 97.3083 8.3825C97.1753 8.15767 97.1088 7.91383 97.1088 7.651C97.1088 7.35967 97.1848 7.11583 97.3368 6.9195C97.4919 6.72 97.7104 6.57117 97.9923 6.473C98.2741 6.37167 98.6066 6.321 98.9898 6.321C99.2399 6.321 99.4759 6.34 99.6975 6.378C99.9224 6.416 100.146 6.46667 100.367 6.53V7.1855C100.193 7.1285 100.003 7.08417 99.7973 7.0525C99.5914 7.02083 99.3983 7.005 99.2178 7.005C98.9518 7.005 98.7333 7.05408 98.5623 7.15225C98.3913 7.25042 98.3058 7.41667 98.3058 7.651C98.3058 7.822 98.3754 7.96925 98.5148 8.09275C98.6541 8.21625 98.8758 8.278 99.1798 8.278C99.4109 8.278 99.6073 8.22733 99.7688 8.126C99.9303 8.02467 100.052 7.898 100.135 7.746C100.22 7.594 100.263 7.442 100.263 7.29H100.529C100.529 7.6225 100.467 7.92967 100.344 8.2115C100.22 8.49017 100.036 8.71342 99.7925 8.88125C99.5519 9.04908 99.2526 9.133 98.8948 9.133ZM103.73 3.547C103.511 3.547 103.34 3.49 103.217 3.376C103.097 3.25883 103.036 3.09733 103.036 2.8915C103.036 2.692 103.097 2.53367 103.217 2.4165C103.34 2.29617 103.511 2.236 103.73 2.236C103.945 2.236 104.115 2.29617 104.238 2.4165C104.362 2.53367 104.423 2.692 104.423 2.8915C104.423 3.09733 104.362 3.25883 104.238 3.376C104.115 3.49 103.945 3.547 103.73 3.547ZM103.169 9V4.3735H104.29V9H103.169ZM106.239 9V4.3735H107.36V9H106.239ZM107.085 6.9765C107.085 6.37167 107.153 5.87133 107.289 5.4755C107.425 5.07967 107.607 4.78675 107.835 4.59675C108.066 4.40358 108.323 4.307 108.605 4.307C108.681 4.307 108.752 4.31175 108.818 4.32125C108.888 4.33075 108.956 4.345 109.023 4.364L109.004 5.485C108.921 5.466 108.833 5.45017 108.738 5.4375C108.643 5.42483 108.557 5.4185 108.481 5.4185C108.234 5.4185 108.027 5.47867 107.859 5.599C107.694 5.71617 107.569 5.89033 107.484 6.1215C107.401 6.35267 107.36 6.63767 107.36 6.9765H107.085ZM111.736 9.133C111.343 9.133 110.983 9.03167 110.657 8.829C110.331 8.62633 110.07 8.34292 109.874 7.97875C109.677 7.61142 109.579 7.18233 109.579 6.6915C109.579 6.18483 109.676 5.74942 109.869 5.38525C110.065 5.02108 110.326 4.74242 110.653 4.54925C110.979 4.35608 111.34 4.2595 111.736 4.2595C112.103 4.2595 112.42 4.33392 112.686 4.48275C112.955 4.62842 113.17 4.82792 113.332 5.08125C113.496 5.33142 113.607 5.61483 113.664 5.9315C113.721 6.24817 113.724 6.57433 113.674 6.91H110.472V6.302H112.88L112.662 6.4445C112.671 6.29567 112.663 6.14525 112.638 5.99325C112.616 5.84125 112.572 5.70192 112.505 5.57525C112.439 5.44858 112.344 5.34725 112.22 5.27125C112.1 5.19208 111.945 5.1525 111.755 5.1525C111.527 5.1525 111.333 5.2095 111.175 5.3235C111.017 5.4375 110.896 5.59267 110.814 5.789C110.732 5.98533 110.691 6.207 110.691 6.454V6.9005C110.691 7.16017 110.729 7.38975 110.805 7.58925C110.884 7.78875 110.999 7.9455 111.151 8.0595C111.306 8.1735 111.501 8.2305 111.736 8.2305C111.954 8.2305 112.138 8.17983 112.287 8.0785C112.435 7.97717 112.53 7.82517 112.572 7.6225H113.702C113.655 7.92017 113.542 8.183 113.365 8.411C113.191 8.63583 112.964 8.81317 112.686 8.943C112.407 9.06967 112.09 9.133 111.736 9.133ZM116.821 9.133C116.377 9.133 115.996 9.07283 115.676 8.9525C115.359 8.829 115.115 8.65325 114.944 8.42525C114.773 8.19408 114.686 7.917 114.683 7.594H115.719C115.728 7.822 115.818 7.98825 115.989 8.09275C116.16 8.19725 116.393 8.2495 116.688 8.2495C116.849 8.2495 116.992 8.22575 117.115 8.17825C117.242 8.13075 117.34 8.06583 117.41 7.9835C117.479 7.90117 117.514 7.80933 117.514 7.708C117.514 7.57817 117.467 7.47683 117.372 7.404C117.28 7.328 117.131 7.25833 116.925 7.195L115.918 6.834C115.557 6.70417 115.28 6.53317 115.087 6.321C114.894 6.10883 114.797 5.8555 114.797 5.561C114.797 5.1715 114.973 4.858 115.324 4.6205C115.679 4.37983 116.153 4.2595 116.745 4.2595C117.334 4.2595 117.788 4.38933 118.108 4.649C118.431 4.9055 118.597 5.23167 118.607 5.6275H117.552C117.536 5.4755 117.464 5.35517 117.334 5.2665C117.204 5.17783 117.008 5.1335 116.745 5.1335C116.507 5.1335 116.32 5.18258 116.184 5.28075C116.051 5.37575 115.985 5.48817 115.985 5.618C115.985 5.8365 116.172 6.00117 116.545 6.112L117.638 6.5205C117.992 6.64083 118.268 6.796 118.464 6.986C118.661 7.176 118.759 7.41667 118.759 7.708C118.759 7.95183 118.676 8.183 118.512 8.4015C118.35 8.61683 118.124 8.79258 117.832 8.92875C117.541 9.06492 117.204 9.133 116.821 9.133ZM124.309 9.133C123.923 9.133 123.57 9.03167 123.25 8.829C122.933 8.62317 122.68 8.33658 122.49 7.96925C122.303 7.59875 122.21 7.1665 122.21 6.6725C122.21 6.18483 122.3 5.7605 122.481 5.3995C122.664 5.03533 122.908 4.75508 123.212 4.55875C123.519 4.35925 123.86 4.2595 124.233 4.2595C124.575 4.2595 124.871 4.34183 125.122 4.5065C125.372 4.668 125.563 4.90867 125.696 5.2285C125.829 5.54833 125.896 5.941 125.896 6.4065H125.544C125.544 6.16583 125.495 5.96158 125.397 5.79375C125.299 5.62275 125.169 5.49292 125.008 5.40425C124.849 5.31242 124.677 5.2665 124.49 5.2665C124.265 5.2665 124.065 5.32508 123.891 5.44225C123.72 5.55942 123.586 5.72408 123.488 5.93625C123.389 6.14525 123.34 6.39067 123.34 6.6725C123.34 6.96383 123.389 7.21717 123.488 7.4325C123.586 7.64783 123.72 7.81567 123.891 7.936C124.065 8.05633 124.262 8.1165 124.48 8.1165C124.658 8.1165 124.827 8.069 124.989 7.974C125.153 7.87583 125.286 7.73967 125.388 7.5655C125.492 7.39133 125.544 7.18867 125.544 6.9575H125.896C125.896 7.442 125.823 7.84575 125.677 8.16875C125.535 8.48858 125.343 8.72925 125.103 8.89075C124.862 9.05225 124.597 9.133 124.309 9.133ZM125.753 9L125.544 7.86V2.483H126.675V9H125.753ZM130.211 9.133C129.819 9.133 129.459 9.03167 129.133 8.829C128.807 8.62633 128.546 8.34292 128.349 7.97875C128.153 7.61142 128.055 7.18233 128.055 6.6915C128.055 6.18483 128.151 5.74942 128.344 5.38525C128.541 5.02108 128.802 4.74242 129.128 4.54925C129.454 4.35608 129.815 4.2595 130.211 4.2595C130.579 4.2595 130.895 4.33392 131.161 4.48275C131.43 4.62842 131.646 4.82792 131.807 5.08125C131.972 5.33142 132.083 5.61483 132.14 5.9315C132.197 6.24817 132.2 6.57433 132.149 6.91H128.948V6.302H131.356L131.137 6.4445C131.147 6.29567 131.139 6.14525 131.114 5.99325C131.092 5.84125 131.047 5.70192 130.981 5.57525C130.914 5.44858 130.819 5.34725 130.696 5.27125C130.575 5.19208 130.42 5.1525 130.23 5.1525C130.002 5.1525 129.809 5.2095 129.651 5.3235C129.492 5.4375 129.372 5.59267 129.29 5.789C129.207 5.98533 129.166 6.207 129.166 6.454V6.9005C129.166 7.16017 129.204 7.38975 129.28 7.58925C129.359 7.78875 129.475 7.9455 129.627 8.0595C129.782 8.1735 129.977 8.2305 130.211 8.2305C130.43 8.2305 130.613 8.17983 130.762 8.0785C130.911 7.97717 131.006 7.82517 131.047 7.6225H132.178C132.13 7.92017 132.018 8.183 131.84 8.411C131.666 8.63583 131.44 8.81317 131.161 8.943C130.883 9.06967 130.566 9.133 130.211 9.133ZM137.585 9.133C137.313 9.133 137.063 9.08233 136.835 8.981C136.61 8.87967 136.429 8.7245 136.293 8.5155C136.16 8.3065 136.094 8.0405 136.094 7.7175V3.167H137.215V7.6795C137.215 8.0595 137.395 8.2495 137.756 8.2495C137.867 8.2495 137.978 8.23683 138.089 8.2115C138.199 8.18617 138.326 8.14817 138.469 8.0975L138.63 8.886C138.453 8.95567 138.28 9.01425 138.112 9.06175C137.945 9.10925 137.769 9.133 137.585 9.133ZM135.448 5.1335V4.3925H138.469V5.1335H135.448ZM141.637 9.133C141.216 9.133 140.834 9.04275 140.492 8.86225C140.154 8.68175 139.884 8.41258 139.685 8.05475C139.485 7.69375 139.386 7.2425 139.386 6.701C139.386 6.15 139.485 5.694 139.685 5.333C139.884 4.972 140.154 4.70283 140.492 4.5255C140.834 4.34817 141.216 4.2595 141.637 4.2595C142.052 4.2595 142.427 4.34817 142.763 4.5255C143.102 4.70283 143.371 4.972 143.57 5.333C143.77 5.694 143.87 6.15 143.87 6.701C143.87 7.2425 143.77 7.69375 143.57 8.05475C143.371 8.41258 143.102 8.68175 142.763 8.86225C142.427 9.04275 142.052 9.133 141.637 9.133ZM141.599 8.1545C141.821 8.1545 142.017 8.10067 142.188 7.993C142.362 7.88217 142.499 7.71908 142.597 7.50375C142.698 7.28842 142.749 7.02083 142.749 6.701C142.749 6.21333 142.652 5.846 142.459 5.599C142.269 5.352 142.008 5.2285 141.675 5.2285C141.45 5.2285 141.251 5.28392 141.077 5.39475C140.903 5.50242 140.765 5.6655 140.663 5.884C140.565 6.1025 140.516 6.37483 140.516 6.701C140.516 7.18233 140.613 7.54492 140.806 7.78875C141.002 8.03258 141.267 8.1545 141.599 8.1545ZM148.32 4.3735H149.441V9H148.32V4.3735ZM145.156 4.3735H146.277V7.2045C146.277 7.50533 146.351 7.73175 146.5 7.88375C146.649 8.03258 146.853 8.107 147.113 8.107C147.335 8.107 147.536 8.05 147.716 7.936C147.9 7.81883 148.046 7.64783 148.153 7.423C148.264 7.195 148.32 6.91317 148.32 6.5775H148.624C148.624 7.14117 148.551 7.60825 148.405 7.97875C148.259 8.34925 148.058 8.62633 147.802 8.81C147.545 8.99367 147.249 9.0855 146.914 9.0855C146.584 9.0855 146.287 9.02692 146.021 8.90975C145.755 8.79258 145.544 8.60417 145.389 8.3445C145.234 8.08483 145.156 7.74283 145.156 7.3185V4.3735ZM152.974 9.133C152.531 9.133 152.149 9.07283 151.829 8.9525C151.513 8.829 151.269 8.65325 151.098 8.42525C150.927 8.19408 150.84 7.917 150.837 7.594H151.872C151.882 7.822 151.972 7.98825 152.143 8.09275C152.314 8.19725 152.547 8.2495 152.841 8.2495C153.003 8.2495 153.145 8.22575 153.269 8.17825C153.395 8.13075 153.493 8.06583 153.563 7.9835C153.633 7.90117 153.668 7.80933 153.668 7.708C153.668 7.57817 153.62 7.47683 153.525 7.404C153.433 7.328 153.284 7.25833 153.079 7.195L152.072 6.834C151.711 6.70417 151.434 6.53317 151.24 6.321C151.047 6.10883 150.951 5.8555 150.951 5.561C150.951 5.1715 151.126 4.858 151.478 4.6205C151.833 4.37983 152.306 4.2595 152.898 4.2595C153.487 4.2595 153.942 4.38933 154.261 4.649C154.584 4.9055 154.751 5.23167 154.76 5.6275H153.706C153.69 5.4755 153.617 5.35517 153.487 5.2665C153.357 5.17783 153.161 5.1335 152.898 5.1335C152.661 5.1335 152.474 5.18258 152.338 5.28075C152.205 5.37575 152.138 5.48817 152.138 5.618C152.138 5.8365 152.325 6.00117 152.699 6.112L153.791 6.5205C154.146 6.64083 154.421 6.796 154.618 6.986C154.814 7.176 154.912 7.41667 154.912 7.708C154.912 7.95183 154.83 8.183 154.665 8.4015C154.504 8.61683 154.277 8.79258 153.986 8.92875C153.695 9.06492 153.357 9.133 152.974 9.133ZM158.762 9V2.483H159.883V9H158.762ZM163.424 9.133C163.031 9.133 162.672 9.03167 162.345 8.829C162.019 8.62633 161.758 8.34292 161.562 7.97875C161.365 7.61142 161.267 7.18233 161.267 6.6915C161.267 6.18483 161.364 5.74942 161.557 5.38525C161.753 5.02108 162.015 4.74242 162.341 4.54925C162.667 4.35608 163.028 4.2595 163.424 4.2595C163.791 4.2595 164.108 4.33392 164.374 4.48275C164.643 4.62842 164.858 4.82792 165.02 5.08125C165.184 5.33142 165.295 5.61483 165.352 5.9315C165.409 6.24817 165.412 6.57433 165.362 6.91H162.16V6.302H164.568L164.35 6.4445C164.359 6.29567 164.352 6.14525 164.326 5.99325C164.304 5.84125 164.26 5.70192 164.193 5.57525C164.127 5.44858 164.032 5.34725 163.908 5.27125C163.788 5.19208 163.633 5.1525 163.443 5.1525C163.215 5.1525 163.022 5.2095 162.863 5.3235C162.705 5.4375 162.585 5.59267 162.502 5.789C162.42 5.98533 162.379 6.207 162.379 6.454V6.9005C162.379 7.16017 162.417 7.38975 162.493 7.58925C162.572 7.78875 162.687 7.9455 162.839 8.0595C162.995 8.1735 163.189 8.2305 163.424 8.2305C163.642 8.2305 163.826 8.17983 163.975 8.0785C164.124 7.97717 164.219 7.82517 164.26 7.6225H165.39C165.343 7.92017 165.23 8.183 165.053 8.411C164.879 8.63583 164.652 8.81317 164.374 8.943C164.095 9.06967 163.778 9.133 163.424 9.133ZM168.509 9.133C168.066 9.133 167.684 9.07283 167.364 8.9525C167.047 8.829 166.804 8.65325 166.633 8.42525C166.462 8.19408 166.375 7.917 166.371 7.594H167.407C167.416 7.822 167.507 7.98825 167.678 8.09275C167.849 8.19725 168.081 8.2495 168.376 8.2495C168.537 8.2495 168.68 8.22575 168.803 8.17825C168.93 8.13075 169.028 8.06583 169.098 7.9835C169.168 7.90117 169.202 7.80933 169.202 7.708C169.202 7.57817 169.155 7.47683 169.06 7.404C168.968 7.328 168.819 7.25833 168.613 7.195L167.606 6.834C167.245 6.70417 166.968 6.53317 166.775 6.321C166.582 6.10883 166.485 5.8555 166.485 5.561C166.485 5.1715 166.661 4.858 167.013 4.6205C167.367 4.37983 167.841 4.2595 168.433 4.2595C169.022 4.2595 169.476 4.38933 169.796 4.649C170.119 4.9055 170.285 5.23167 170.295 5.6275H169.24C169.225 5.4755 169.152 5.35517 169.022 5.2665C168.892 5.17783 168.696 5.1335 168.433 5.1335C168.195 5.1335 168.009 5.18258 167.872 5.28075C167.739 5.37575 167.673 5.48817 167.673 5.618C167.673 5.8365 167.86 6.00117 168.233 6.112L169.326 6.5205C169.681 6.64083 169.956 6.796 170.152 6.986C170.349 7.176 170.447 7.41667 170.447 7.708C170.447 7.95183 170.365 8.183 170.2 8.4015C170.038 8.61683 169.812 8.79258 169.521 8.92875C169.229 9.06492 168.892 9.133 168.509 9.133ZM176.605 9.133C176.267 9.133 175.978 9.06017 175.741 8.9145C175.503 8.76883 175.321 8.54875 175.195 8.25425C175.071 7.95658 175.009 7.5845 175.009 7.138H175.418C175.418 7.34383 175.465 7.51958 175.56 7.66525C175.655 7.81092 175.781 7.92333 175.936 8.0025C176.094 8.0785 176.263 8.1165 176.444 8.1165C176.631 8.1165 176.814 8.06583 176.995 7.9645C177.179 7.86 177.331 7.70325 177.451 7.49425C177.571 7.28208 177.631 7.0145 177.631 6.6915C177.631 6.397 177.581 6.14367 177.479 5.9315C177.378 5.71617 177.239 5.5515 177.061 5.4375C176.887 5.3235 176.688 5.2665 176.463 5.2665C176.273 5.2665 176.099 5.30925 175.94 5.39475C175.782 5.48025 175.655 5.60533 175.56 5.77C175.465 5.9315 175.418 6.12783 175.418 6.359H175.009C175.009 5.8745 175.084 5.47867 175.233 5.1715C175.382 4.86117 175.581 4.63158 175.831 4.48275C176.081 4.33392 176.355 4.2595 176.653 4.2595C177.017 4.2595 177.359 4.35608 177.679 4.54925C178.002 4.74242 178.263 5.02108 178.463 5.38525C178.662 5.74625 178.762 6.18167 178.762 6.6915C178.762 7.2045 178.661 7.64308 178.458 8.00725C178.255 8.37142 177.989 8.65008 177.66 8.84325C177.334 9.03642 176.982 9.133 176.605 9.133ZM174.297 11.2515V4.3925H175.218L175.418 5.5325V11.2515H174.297ZM183.078 9L182.936 7.879V6.0265C182.936 5.7035 182.869 5.46442 182.736 5.30925C182.606 5.15408 182.385 5.0765 182.071 5.0765C181.891 5.0765 181.734 5.10342 181.601 5.15725C181.468 5.21108 181.365 5.28867 181.292 5.39C181.223 5.48817 181.188 5.6085 181.188 5.751H179.962C179.962 5.40267 180.046 5.11925 180.214 4.90075C180.382 4.67908 180.623 4.51758 180.936 4.41625C181.253 4.31175 181.631 4.2595 182.071 4.2595C182.47 4.2595 182.819 4.32442 183.116 4.45425C183.414 4.58092 183.645 4.77725 183.81 5.04325C183.974 5.30925 184.057 5.64967 184.057 6.0645V9H183.078ZM181.568 9.133C181.172 9.133 180.841 9.06492 180.575 8.92875C180.312 8.78942 180.114 8.60733 179.981 8.3825C179.848 8.15767 179.782 7.91383 179.782 7.651C179.782 7.35967 179.858 7.11583 180.01 6.9195C180.165 6.72 180.383 6.57117 180.665 6.473C180.947 6.37167 181.28 6.321 181.663 6.321C181.913 6.321 182.149 6.34 182.371 6.378C182.595 6.416 182.819 6.46667 183.04 6.53V7.1855C182.866 7.1285 182.676 7.08417 182.47 7.0525C182.264 7.02083 182.071 7.005 181.891 7.005C181.625 7.005 181.406 7.05408 181.235 7.15225C181.064 7.25042 180.979 7.41667 180.979 7.651C180.979 7.822 181.048 7.96925 181.188 8.09275C181.327 8.21625 181.549 8.278 181.853 8.278C182.084 8.278 182.28 8.22733 182.442 8.126C182.603 8.02467 182.725 7.898 182.808 7.746C182.893 7.594 182.936 7.442 182.936 7.29H183.202C183.202 7.6225 183.14 7.92967 183.017 8.2115C182.893 8.49017 182.709 8.71342 182.466 8.88125C182.225 9.04908 181.926 9.133 181.568 9.133ZM185.044 4.3925H186.317L187.543 8.0215H187.343L188.398 4.3925H189.538L187.771 9.836C187.59 10.3807 187.367 10.7749 187.101 11.0188C186.838 11.2626 186.517 11.3845 186.137 11.3845C185.918 11.3845 185.705 11.3592 185.496 11.3085C185.29 11.261 185.079 11.185 184.864 11.0805V10.0925C185.038 10.2002 185.206 10.2793 185.367 10.33C185.532 10.3807 185.697 10.406 185.861 10.406C186.01 10.406 186.14 10.3648 186.251 10.2825C186.365 10.2033 186.463 10.0909 186.545 9.94525C186.628 9.80275 186.697 9.6365 186.754 9.4465L186.897 9L185.044 4.3925ZM192.302 9.133C191.858 9.133 191.477 9.07283 191.157 8.9525C190.84 8.829 190.596 8.65325 190.425 8.42525C190.254 8.19408 190.167 7.917 190.164 7.594H191.2C191.209 7.822 191.299 7.98825 191.47 8.09275C191.641 8.19725 191.874 8.2495 192.169 8.2495C192.33 8.2495 192.473 8.22575 192.596 8.17825C192.723 8.13075 192.821 8.06583 192.891 7.9835C192.96 7.90117 192.995 7.80933 192.995 7.708C192.995 7.57817 192.948 7.47683 192.853 7.404C192.761 7.328 192.612 7.25833 192.406 7.195L191.399 6.834C191.038 6.70417 190.761 6.53317 190.568 6.321C190.375 6.10883 190.278 5.8555 190.278 5.561C190.278 5.1715 190.454 4.858 190.805 4.6205C191.16 4.37983 191.633 4.2595 192.226 4.2595C192.815 4.2595 193.269 4.38933 193.589 4.649C193.912 4.9055 194.078 5.23167 194.088 5.6275H193.033C193.017 5.4755 192.944 5.35517 192.815 5.2665C192.685 5.17783 192.488 5.1335 192.226 5.1335C191.988 5.1335 191.801 5.18258 191.665 5.28075C191.532 5.37575 191.466 5.48817 191.466 5.618C191.466 5.8365 191.652 6.00117 192.026 6.112L193.119 6.5205C193.473 6.64083 193.749 6.796 193.945 6.986C194.141 7.176 194.24 7.41667 194.24 7.708C194.24 7.95183 194.157 8.183 193.993 8.4015C193.831 8.61683 193.605 8.79258 193.313 8.92875C193.022 9.06492 192.685 9.133 192.302 9.133ZM195.81 10.292L194.984 9.874C195.193 9.7695 195.378 9.64917 195.54 9.513C195.701 9.37683 195.807 9.22167 195.858 9.0475C195.684 9.01267 195.533 8.93983 195.407 8.829C195.283 8.71817 195.221 8.5725 195.221 8.392C195.221 8.202 195.294 8.04208 195.44 7.91225C195.585 7.78242 195.769 7.7175 195.991 7.7175C196.273 7.7175 196.493 7.81567 196.651 8.012C196.813 8.20833 196.893 8.44108 196.893 8.71025C196.893 9.01742 196.797 9.31508 196.604 9.60325C196.41 9.89458 196.146 10.1242 195.81 10.292ZM203.608 4.3735H204.729V9H203.608V4.3735ZM200.445 4.3735H201.566V7.2045C201.566 7.50533 201.64 7.73175 201.789 7.88375C201.938 8.03258 202.142 8.107 202.402 8.107C202.624 8.107 202.825 8.05 203.005 7.936C203.189 7.81883 203.335 7.64783 203.442 7.423C203.553 7.195 203.608 6.91317 203.608 6.5775H203.912C203.912 7.14117 203.84 7.60825 203.694 7.97875C203.548 8.34925 203.347 8.62633 203.091 8.81C202.834 8.99367 202.538 9.0855 202.202 9.0855C201.873 9.0855 201.575 9.02692 201.309 8.90975C201.043 8.79258 200.833 8.60417 200.678 8.3445C200.523 8.08483 200.445 7.74283 200.445 7.3185V4.3735ZM209.707 9V6.302C209.707 5.96 209.625 5.70192 209.46 5.52775C209.295 5.35358 209.08 5.2665 208.814 5.2665C208.589 5.2665 208.39 5.32825 208.216 5.45175C208.045 5.57525 207.91 5.76208 207.812 6.01225C207.714 6.25925 207.665 6.568 207.665 6.9385H207.294C207.294 6.34 207.368 5.84283 207.517 5.447C207.666 5.048 207.877 4.75033 208.149 4.554C208.421 4.35767 208.741 4.2595 209.109 4.2595C209.489 4.2595 209.805 4.345 210.059 4.516C210.315 4.68383 210.507 4.92133 210.633 5.2285C210.763 5.53567 210.828 5.8935 210.828 6.302V9H209.707ZM206.544 9V4.3925H207.522L207.665 5.3045V9H206.544ZM213.165 3.547C212.947 3.547 212.776 3.49 212.652 3.376C212.532 3.25883 212.472 3.09733 212.472 2.8915C212.472 2.692 212.532 2.53367 212.652 2.4165C212.776 2.29617 212.947 2.236 213.165 2.236C213.381 2.236 213.55 2.29617 213.674 2.4165C213.797 2.53367 213.859 2.692 213.859 2.8915C213.859 3.09733 213.797 3.25883 213.674 3.376C213.55 3.49 213.381 3.547 213.165 3.547ZM212.605 9V4.3735H213.726V9H212.605ZM217.394 9.133C216.951 9.133 216.569 9.07283 216.249 8.9525C215.933 8.829 215.689 8.65325 215.518 8.42525C215.347 8.19408 215.26 7.917 215.257 7.594H216.292C216.302 7.822 216.392 7.98825 216.563 8.09275C216.734 8.19725 216.967 8.2495 217.261 8.2495C217.423 8.2495 217.565 8.22575 217.689 8.17825C217.815 8.13075 217.913 8.06583 217.983 7.9835C218.053 7.90117 218.088 7.80933 218.088 7.708C218.088 7.57817 218.04 7.47683 217.945 7.404C217.853 7.328 217.704 7.25833 217.499 7.195L216.492 6.834C216.131 6.70417 215.854 6.53317 215.66 6.321C215.467 6.10883 215.371 5.8555 215.371 5.561C215.371 5.1715 215.546 4.858 215.898 4.6205C216.253 4.37983 216.726 4.2595 217.318 4.2595C217.907 4.2595 218.362 4.38933 218.681 4.649C219.004 4.9055 219.171 5.23167 219.18 5.6275H218.126C218.11 5.4755 218.037 5.35517 217.907 5.2665C217.777 5.17783 217.581 5.1335 217.318 5.1335C217.081 5.1335 216.894 5.18258 216.758 5.28075C216.625 5.37575 216.558 5.48817 216.558 5.618C216.558 5.8365 216.745 6.00117 217.119 6.112L218.211 6.5205C218.566 6.64083 218.841 6.796 219.038 6.986C219.234 7.176 219.332 7.41667 219.332 7.708C219.332 7.95183 219.25 8.183 219.085 8.4015C218.924 8.61683 218.697 8.79258 218.406 8.92875C218.115 9.06492 217.777 9.133 217.394 9.133ZM222.451 9.133C222.008 9.133 221.626 9.07283 221.307 8.9525C220.99 8.829 220.746 8.65325 220.575 8.42525C220.404 8.19408 220.317 7.917 220.314 7.594H221.349C221.359 7.822 221.449 7.98825 221.62 8.09275C221.791 8.19725 222.024 8.2495 222.318 8.2495C222.48 8.2495 222.622 8.22575 222.746 8.17825C222.873 8.13075 222.971 8.06583 223.04 7.9835C223.11 7.90117 223.145 7.80933 223.145 7.708C223.145 7.57817 223.097 7.47683 223.002 7.404C222.911 7.328 222.762 7.25833 222.556 7.195L221.549 6.834C221.188 6.70417 220.911 6.53317 220.718 6.321C220.524 6.10883 220.428 5.8555 220.428 5.561C220.428 5.1715 220.604 4.858 220.955 4.6205C221.31 4.37983 221.783 4.2595 222.375 4.2595C222.964 4.2595 223.419 4.38933 223.739 4.649C224.062 4.9055 224.228 5.23167 224.237 5.6275H223.183C223.167 5.4755 223.094 5.35517 222.964 5.2665C222.835 5.17783 222.638 5.1335 222.375 5.1335C222.138 5.1335 221.951 5.18258 221.815 5.28075C221.682 5.37575 221.615 5.48817 221.615 5.618C221.615 5.8365 221.802 6.00117 222.176 6.112L223.268 6.5205C223.623 6.64083 223.899 6.796 224.095 6.986C224.291 7.176 224.389 7.41667 224.389 7.708C224.389 7.95183 224.307 8.183 224.142 8.4015C223.981 8.61683 223.754 8.79258 223.463 8.92875C223.172 9.06492 222.835 9.133 222.451 9.133ZM227.604 9.133C227.183 9.133 226.801 9.04275 226.459 8.86225C226.12 8.68175 225.851 8.41258 225.651 8.05475C225.452 7.69375 225.352 7.2425 225.352 6.701C225.352 6.15 225.452 5.694 225.651 5.333C225.851 4.972 226.12 4.70283 226.459 4.5255C226.801 4.34817 227.183 4.2595 227.604 4.2595C228.019 4.2595 228.394 4.34817 228.729 4.5255C229.068 4.70283 229.337 4.972 229.537 5.333C229.736 5.694 229.836 6.15 229.836 6.701C229.836 7.2425 229.736 7.69375 229.537 8.05475C229.337 8.41258 229.068 8.68175 228.729 8.86225C228.394 9.04275 228.019 9.133 227.604 9.133ZM227.566 8.1545C227.787 8.1545 227.984 8.10067 228.155 7.993C228.329 7.88217 228.465 7.71908 228.563 7.50375C228.665 7.28842 228.715 7.02083 228.715 6.701C228.715 6.21333 228.619 5.846 228.425 5.599C228.235 5.352 227.974 5.2285 227.642 5.2285C227.417 5.2285 227.217 5.28392 227.043 5.39475C226.869 5.50242 226.731 5.6655 226.63 5.884C226.532 6.1025 226.483 6.37483 226.483 6.701C226.483 7.18233 226.579 7.54492 226.772 7.78875C226.969 8.03258 227.233 8.1545 227.566 8.1545ZM234.381 9V6.302C234.381 5.96 234.299 5.70192 234.134 5.52775C233.969 5.35358 233.754 5.2665 233.488 5.2665C233.263 5.2665 233.064 5.32825 232.89 5.45175C232.719 5.57525 232.584 5.76208 232.486 6.01225C232.388 6.25925 232.339 6.568 232.339 6.9385H231.968C231.968 6.34 232.042 5.84283 232.191 5.447C232.34 5.048 232.551 4.75033 232.823 4.554C233.095 4.35767 233.415 4.2595 233.783 4.2595C234.163 4.2595 234.479 4.345 234.733 4.516C234.989 4.68383 235.181 4.92133 235.307 5.2285C235.437 5.53567 235.502 5.8935 235.502 6.302V9H234.381ZM231.218 9V4.3925H232.196L232.339 5.3045V9H231.218ZM238.903 9.133C238.46 9.133 238.079 9.07283 237.759 8.9525C237.442 8.829 237.198 8.65325 237.027 8.42525C236.856 8.19408 236.769 7.917 236.766 7.594H237.801C237.811 7.822 237.901 7.98825 238.072 8.09275C238.243 8.19725 238.476 8.2495 238.77 8.2495C238.932 8.2495 239.074 8.22575 239.198 8.17825C239.325 8.13075 239.423 8.06583 239.492 7.9835C239.562 7.90117 239.597 7.80933 239.597 7.708C239.597 7.57817 239.549 7.47683 239.454 7.404C239.363 7.328 239.214 7.25833 239.008 7.195L238.001 6.834C237.64 6.70417 237.363 6.53317 237.17 6.321C236.977 6.10883 236.88 5.8555 236.88 5.561C236.88 5.1715 237.056 4.858 237.407 4.6205C237.762 4.37983 238.235 4.2595 238.827 4.2595C239.416 4.2595 239.871 4.38933 240.191 4.649C240.514 4.9055 240.68 5.23167 240.689 5.6275H239.635C239.619 5.4755 239.546 5.35517 239.416 5.2665C239.287 5.17783 239.09 5.1335 238.827 5.1335C238.59 5.1335 238.403 5.18258 238.267 5.28075C238.134 5.37575 238.067 5.48817 238.067 5.618C238.067 5.8365 238.254 6.00117 238.628 6.112L239.72 6.5205C240.075 6.64083 240.351 6.796 240.547 6.986C240.743 7.176 240.841 7.41667 240.841 7.708C240.841 7.95183 240.759 8.183 240.594 8.4015C240.433 8.61683 240.207 8.79258 239.915 8.92875C239.624 9.06492 239.287 9.133 238.903 9.133ZM241.795 6.625V5.6465H244.464V6.625H241.795ZM248.996 9V6.302C248.996 5.96 248.914 5.70192 248.749 5.52775C248.585 5.35358 248.369 5.2665 248.103 5.2665C247.878 5.2665 247.679 5.32825 247.505 5.45175C247.334 5.57525 247.199 5.76208 247.101 6.01225C247.003 6.25925 246.954 6.568 246.954 6.9385H246.583C246.583 6.34 246.658 5.84283 246.806 5.447C246.955 5.048 247.166 4.75033 247.438 4.554C247.711 4.35767 248.03 4.2595 248.398 4.2595C248.778 4.2595 249.094 4.345 249.348 4.516C249.604 4.68383 249.796 4.92133 249.922 5.2285C250.052 5.53567 250.117 5.8935 250.117 6.302V9H248.996ZM245.833 9V4.3925H246.811L246.954 5.3045V9H245.833ZM253.614 9.133C253.192 9.133 252.811 9.04275 252.469 8.86225C252.13 8.68175 251.861 8.41258 251.661 8.05475C251.462 7.69375 251.362 7.2425 251.362 6.701C251.362 6.15 251.462 5.694 251.661 5.333C251.861 4.972 252.13 4.70283 252.469 4.5255C252.811 4.34817 253.192 4.2595 253.614 4.2595C254.028 4.2595 254.404 4.34817 254.739 4.5255C255.078 4.70283 255.347 4.972 255.547 5.333C255.746 5.694 255.846 6.15 255.846 6.701C255.846 7.2425 255.746 7.69375 255.547 8.05475C255.347 8.41258 255.078 8.68175 254.739 8.86225C254.404 9.04275 254.028 9.133 253.614 9.133ZM253.576 8.1545C253.797 8.1545 253.994 8.10067 254.165 7.993C254.339 7.88217 254.475 7.71908 254.573 7.50375C254.674 7.28842 254.725 7.02083 254.725 6.701C254.725 6.21333 254.629 5.846 254.435 5.599C254.245 5.352 253.984 5.2285 253.652 5.2285C253.427 5.2285 253.227 5.28392 253.053 5.39475C252.879 5.50242 252.741 5.6655 252.64 5.884C252.542 6.1025 252.493 6.37483 252.493 6.701C252.493 7.18233 252.589 7.54492 252.782 7.78875C252.979 8.03258 253.243 8.1545 253.576 8.1545ZM260.296 4.3735H261.417V9H260.296V4.3735ZM257.132 4.3735H258.253V7.2045C258.253 7.50533 258.328 7.73175 258.477 7.88375C258.626 8.03258 258.83 8.107 259.089 8.107C259.311 8.107 259.512 8.05 259.693 7.936C259.876 7.81883 260.022 7.64783 260.13 7.423C260.241 7.195 260.296 6.91317 260.296 6.5775H260.6C260.6 7.14117 260.527 7.60825 260.381 7.97875C260.236 8.34925 260.035 8.62633 259.778 8.81C259.522 8.99367 259.226 9.0855 258.89 9.0855C258.561 9.0855 258.263 9.02692 257.997 8.90975C257.731 8.79258 257.52 8.60417 257.365 8.3445C257.21 8.08483 257.132 7.74283 257.132 7.3185V4.3735ZM264.951 9.133C264.507 9.133 264.126 9.07283 263.806 8.9525C263.489 8.829 263.245 8.65325 263.074 8.42525C262.903 8.19408 262.816 7.917 262.813 7.594H263.849C263.858 7.822 263.948 7.98825 264.119 8.09275C264.29 8.19725 264.523 8.2495 264.818 8.2495C264.979 8.2495 265.122 8.22575 265.245 8.17825C265.372 8.13075 265.47 8.06583 265.54 7.9835C265.609 7.90117 265.644 7.80933 265.644 7.708C265.644 7.57817 265.597 7.47683 265.502 7.404C265.41 7.328 265.261 7.25833 265.055 7.195L264.048 6.834C263.687 6.70417 263.41 6.53317 263.217 6.321C263.024 6.10883 262.927 5.8555 262.927 5.561C262.927 5.1715 263.103 4.858 263.454 4.6205C263.809 4.37983 264.282 4.2595 264.875 4.2595C265.464 4.2595 265.918 4.38933 266.238 4.649C266.561 4.9055 266.727 5.23167 266.737 5.6275H265.682C265.666 5.4755 265.593 5.35517 265.464 5.2665C265.334 5.17783 265.137 5.1335 264.875 5.1335C264.637 5.1335 264.45 5.18258 264.314 5.28075C264.181 5.37575 264.115 5.48817 264.115 5.618C264.115 5.8365 264.301 6.00117 264.675 6.112L265.768 6.5205C266.122 6.64083 266.398 6.796 266.594 6.986C266.79 7.176 266.889 7.41667 266.889 7.708C266.889 7.95183 266.806 8.183 266.642 8.4015C266.48 8.61683 266.254 8.79258 265.962 8.92875C265.671 9.06492 265.334 9.133 264.951 9.133ZM270.796 6.9195L270.672 2.7015H271.888L271.755 6.9195H270.796ZM271.285 9.0855C271.054 9.0855 270.865 9.01583 270.72 8.8765C270.574 8.734 270.501 8.5535 270.501 8.335C270.501 8.126 270.574 7.94867 270.72 7.803C270.865 7.65733 271.054 7.5845 271.285 7.5845C271.51 7.5845 271.698 7.65733 271.85 7.803C272.002 7.94867 272.078 8.126 272.078 8.335C272.078 8.5535 272.002 8.734 271.85 8.8765C271.698 9.01583 271.51 9.0855 271.285 9.0855Z" fill="#232323"/>
<rect y="63" width="63" height="20" fill="#CC0000"/>
<g clip-path="url(#clip1_549_213)">
<path d="M19 2.2999C14.7 3.6999 8.09998 10.0999 5.49998 15.4999C1.59998 23.5999 2.79998 39.0999 7.59998 43.0999C8.89998 44.1999 8.39998 44.9999 4.29998 49.1999L-0.400024 53.9999L2.29998 56.6999L4.99998 59.3999L9.99998 54.4999C14.9 49.6999 14.9 49.6999 18.8 50.7999C26.3 53.0999 33.9 51.8999 40.4 47.4999C44.2 44.8999 46.6 44.1999 45.5 45.9999C45.2 46.5999 45.4 46.9999 46 46.9999C46.7 46.9999 49.3 48.9999 51.8 51.4999C56.9 56.5999 60 57.3999 60 53.5999C60 52.0999 58.4 49.7999 55.5 47.0999C53 44.7999 51 42.4999 51 41.8999C51 41.2999 50.6 41.0999 50.1 41.3999C49.6 41.6999 48.1 40.8999 46.9 39.4999C44 36.4999 42.4 36.3999 41 39.0999C39.2 42.3999 33.9 44.9999 29 44.8999C20.2 44.7999 20.3 44.4999 31.5 32.4999L41.8 21.4999L44.7 24.1999L47.5 26.8999L50.8 23.3999L54.2 19.8999L49.2 14.1999L44.3 8.4999L36.4 8.1999L28.5 7.8999L33 12.4999L37.5 17.1999L26.5 27.5999C20.5 33.2999 15.2 37.9999 14.8 37.9999C13.1 37.9999 10.7 31.1999 10.7 26.4999C10.7 17.6999 16.4 7.8999 24.5 2.8999C27.5 0.999897 27.5 0.999897 25 1.0999C23.6 1.1999 20.9 1.6999 19 2.2999Z" fill="#CC0000"/>
</g>
<defs>
<clipPath id="clip0_549_213">
<rect width="205.121" height="71.6071" fill="white" transform="translate(69.8794 12.1084)"/>
</clipPath>
<clipPath id="clip1_549_213">
<rect width="60" height="60" fill="white"/>
</clipPath>
</defs>
</svg>
