<?xml version="1.0" encoding="UTF-8" standalone="no"?>
<svg
   width="338.29306"
   height="338.29306"
   version="1.1"
   id="svg1"
   sodipodi:docname="monptellier-municipales-favicon.svg"
   inkscape:version="1.4.2 (ebf0e940d0, 2025-05-08)"
   xmlns:inkscape="http://www.inkscape.org/namespaces/inkscape"
   xmlns:sodipodi="http://sodipodi.sourceforge.net/DTD/sodipodi-0.dtd"
   xmlns="http://www.w3.org/2000/svg"
   xmlns:svg="http://www.w3.org/2000/svg">
  <defs
     id="defs1" />
  <sodipodi:namedview
     id="namedview1"
     pagecolor="#ffffff"
     bordercolor="#000000"
     borderopacity="0.25"
     inkscape:showpageshadow="2"
     inkscape:pageopacity="0.0"
     inkscape:pagecheckerboard="0"
     inkscape:deskcolor="#d1d1d1"
     showgrid="false"
     inkscape:zoom="1.1443585"
     inkscape:cx="-77.335903"
     inkscape:cy="318.08213"
     inkscape:window-width="1920"
     inkscape:window-height="1043"
     inkscape:window-x="0"
     inkscape:window-y="0"
     inkscape:window-maximized="1"
     inkscape:current-layer="svg1" />
  <path
     style="fill:#f06600;fill-opacity:1;stroke-width:2.80511"
     d="M 61.570851,286.35076 C 50.870265,272.40212 28.006105,273.6981 34.435465,242.13043 39.03863,219.52924 45.074053,225.66304 41.96562,195.0017 c -0.620744,-6.12302 -1.332917,-13.2519 -1.582565,-15.84192 -0.249648,-2.59003 -1.07885,-5.76823 -1.84259,-7.06266 -8.651237,-14.66279 -1.114662,-30.67096 15.7563,-33.46746 2.30348,-0.38182 3.303683,-1.23239 6.39507,-5.43859 6.500822,-8.84509 6.84781,-10.71581 2.590148,-13.9633 -1.516285,-1.15651 -3.353153,-2.69907 -4.082006,-3.42793 -1.643052,-1.64301 -2.348627,-1.66178 -3.646408,-0.0969 -3.436823,4.14417 -9.48526,3.31497 -12.601772,-1.7276 -1.626171,-2.63123 -1.626752,-2.66484 -0.205865,-11.53705 0.337003,-2.10428 -0.01599,-3.680136 -1.491988,-6.639836 -5.146629,-10.32796 3.314914,-20.438336 13.171459,-15.73808 2.538475,1.21052 2.538475,1.21052 7.128626,-2.609464 6.966972,-5.797951 9.674693,-6.931282 17.844063,-7.468609 6.03339,-0.396844 7.46727,-0.754364 9.93749,-2.477759 4.4884,-3.131418 7.32911,-2.158764 10.952478,3.750093 0.9346,1.524061 2.79537,4.216031 4.13506,5.982154 1.94547,2.564767 2.4364,3.909305 2.43878,6.679665 0.006,6.06641 2.16892,17.140396 4.08949,20.930506 2.31053,4.55961 2.30042,4.98916 -0.17865,7.57681 -1.71188,1.78679 -2.09402,2.9717 -2.47988,7.68927 -0.55313,6.76251 -1.19046,7.5021 -7.41684,8.60685 -8.593178,1.52463 -12.061338,10.83469 -6.747858,18.11405 9.984798,13.67888 16.668398,16.34083 19.832548,7.89887 3.6506,-9.73995 6.64085,-12.65397 19.61692,-19.11676 14.71228,-7.32753 21.15315,-20.02119 14.19763,-27.98073 -9.69181,-11.090836 -12.45478,-18.815326 -9.50328,-26.568576 1.84015,-4.833871 1.84015,-4.833871 0.0572,-6.906599 -6.83999,-7.951933 4.72529,-22.136799 13.03787,-15.991037 2.20135,1.627537 2.55955,1.609657 7.81587,-0.390152 1.6328,-0.621216 4.35066,-1.144136 6.03971,-1.162052 1.83077,-0.0194 5.07767,-0.971653 8.04018,-2.357965 5.74737,-2.68952 8.10363,-1.931246 9.74813,3.137087 0.62351,1.921693 1.68673,2.973205 4.43241,4.383588 6.67817,3.430435 9.06594,15.272514 5.52981,27.42536 -0.41003,1.40919 -0.54621,4.74902 -0.30264,7.42184 0.41882,4.595776 0.32238,5.010286 -1.77578,7.633606 -1.22022,1.52565 -2.79124,4.5315 -3.49109,6.67965 -1.59652,4.90029 -2.21952,5.64427 -6.13021,7.32057 -3.66042,1.56904 -3.89668,2.65221 -1.26163,5.78379 3.24324,3.8544 7.18428,4.30855 12.75271,1.46957 8.86192,-4.51806 20.96892,1.62128 20.96892,10.63311 0,3.32811 14.39759,24.34304 16.67771,24.34304 0.50582,0 2.27475,-1.92041 3.93095,-4.26755 1.65623,-2.34715 4.58314,-5.75494 6.50435,-7.57287 6.20415,-5.87062 2.43762,-17.84697 -5.61285,-17.84697 -3.72722,0 -6.02753,-3.70192 -6.56063,-10.55821 -0.40405,-5.19632 -0.8165,-6.76457 -2.15328,-8.18749 -2.13629,-2.27399 -2.08353,-3.63494 0.29848,-7.69952 2.2385,-3.81971 4.72771,-12.599516 4.72771,-16.675286 0,-3.57935 2.18518,-8.630505 5.23763,-12.107044 1.32838,-1.512936 2.94771,-3.812854 3.59852,-5.110948 2.37468,-4.736316 11.15455,-4.470661 16.35793,0.49494 1.66372,1.58771 4.49187,3.122034 7.65836,4.154814 5.40308,1.76225 11.29151,5.738518 14.79817,9.992718 1.93508,2.34759 2.57919,2.64965 5.65517,2.65211 14.32678,0.0118 16.15473,24.258966 1.98895,26.383256 -3.51232,0.52671 -4.48692,1.1858 -8.23364,5.5681 -0.85358,0.99839 -2.77396,2.87219 -4.26753,4.16402 -4.21932,3.64936 -3.18091,9.89726 1.64489,9.89726 11.58072,0 20.96686,10.84352 19.78629,22.85846 -0.35042,3.56621 -0.14165,6.33853 0.73801,9.79772 2.46886,9.70898 2.46302,46.97403 -0.009,56.6596 -2.41111,9.4474 5.10294,8.28779 3.29012,19.41428 -12.09149,74.21372 -194.85875,100.3709 -238.218899,43.84922 z m 71.370309,-68.12473 c 4.00711,-6.30832 4.42296,-7.10786 3.41559,-14.01944 -1.0557,-7.24324 -1.69965,-7.84298 -9.16657,-8.53695 l -5.22505,-0.48562 -4.23202,6.3603 c -2.3276,3.49818 -6.07482,8.00281 -8.32722,10.01031 -7.14592,6.36906 -9.18096,14.87627 -7.76384,32.45571 0.96459,11.96553 0.77126,15.21915 -1.53054,25.75859 -1.897598,8.6888 -1.640018,11.17218 0.7631,19.29577 7.85305,26.54673 -27.186331,22.44209 32.06655,-70.83867 z m 100.07086,69.43169 c 2.21341,-7.05593 2.6225,-10.99198 0.79903,-19.37348 -1.4532,-6.67971 -1.5993,-9.21087 -1.388,-24.04597 0.38474,-27.01264 -1.41622,-31.92292 -9.09949,-24.80956 -4.89931,4.53587 -7.76269,6.21091 -14.04317,8.2148 -6.73083,2.14763 -6.60306,0.96537 -2.92898,27.10403 2.04388,14.54091 5.88368,49.35881 0.29194,61.23024 -3.67322,7.79836 14.55716,9.3328 26.36867,-28.32006 z m -24.64426,-86.74645 c 1.1903,-1.44398 3.59368,-5.12393 5.34083,-8.17759 l 3.17669,-5.55209 -1.93634,-2.79412 c -3.90739,-5.63841 -7.75301,-8.81006 -8.18606,-6.75145 -0.99738,4.74143 -1.94416,12.11415 -2.39682,18.66448 -0.57684,8.34753 0.19165,9.23303 4.0017,4.61077 z"
     id="path9"
     sodipodi:nodetypes="sssscscscscscscsscscscscccssscsssssssssssscsssssssssscssscsssssccssssscscsssssssssssssscssss" />
  <path
     fill="none"
     stroke="#000"
     stroke-width="36"
     stroke-linecap="round"
     d="M 278.27507,276.27507 C 337.27743,216.17174 336.60256,119.67926 276.80074,60.434788 217.00196,1.1933397 120.59618,1.5036468 61.04991,61.04991 1.503647,120.59618 1.1933399,217.00196 60.434788,276.80074 c 59.244472,59.80182 155.736952,60.47669 215.840282,1.47433"
     id="path1"
     style="stroke:#173a92;stroke-width:32.5984;stroke-dasharray:none;stroke-opacity:1"
     sodipodi:nodetypes="csssc" />
</svg>
