<?xml version="1.0" encoding="utf-8"?>
<!-- Generator: Adobe Illustrator 18.0.0, SVG Export Plug-In . SVG Version: 6.00 Build 0)  -->
<!DOCTYPE svg PUBLIC "-//W3C//DTD SVG 1.1//EN" "http://www.w3.org/Graphics/SVG/1.1/DTD/svg11.dtd">
<svg version="1.1" id="Layer_1" xmlns="http://www.w3.org/2000/svg" xmlns:xlink="http://www.w3.org/1999/xlink" x="0px" y="0px"
viewBox="0 0 268.8 69.3" enable-background="new 0 0 268.8 69.3" xml:space="preserve">
<g>
<g>
<defs>
<rect id="SVGID_1_" x="0" y="1.3" width="68" height="68"/>
</defs>
<clipPath id="SVGID_2_">
<use xlink:href="#SVGID_1_"  overflow="visible"/>
</clipPath>
<path clip-path="url(#SVGID_2_)" fill="#C12627" d="M68,35.3c0,18.8-15.2,34-34,34S0,54.1,0,35.3c0-18.8,15.2-34,34-34
S68,16.6,68,35.3"/>
</g>
<g>
<defs>
<circle id="SVGID_3_" cx="34" cy="35.3" r="34"/>
</defs>
<clipPath id="SVGID_4_">
<use xlink:href="#SVGID_3_"  overflow="visible"/>
</clipPath>
<path clip-path="url(#SVGID_4_)" fill="#FFFFFF" d="M60.2,18.3c-0.5-1.4-1.5-2.6-3-3.6c-4.2-2.9-10.4-3.8-18.8-2.8
c0.1,2.5,0.4,6.4,0.8,11.4c0.3,2.4,0.9,5.4,1.7,9.1c0.5,2.2,0.8,3.5,0.9,3.9c0,0.1,0.1,0.1,0.1,0.1c3-1.1,6.3-2.9,9.9-5.2
C59.1,26.9,61.8,22.6,60.2,18.3 M42.2,37.9c1.3,6.1,2.8,11.3,4.4,15.8l0.1,0c0.1,0.5-0.1,1.2-0.6,2.2c-0.4,1-0.9,1.5-1.3,1.7
c-0.3,0.1-0.6-0.3-1-1.4c-0.8-2.2-1.9-6.1-3.2-11.8c-2.3-10.3-4.1-19.6-5.3-27.9l-0.4-3.1c-0.1-0.1-0.3-0.3-0.7-0.5
c-0.4-0.2-0.7-0.5-0.8-0.9c-0.2-0.6-0.2-1,0.2-1.2c0.4-0.2,1.2-0.3,2.3-0.4c1.2-0.2,2-0.3,2.3-0.4c9.4-1.5,16.5-0.6,21.2,2.4
c1.7,1.1,2.9,2.5,3.5,4.1c1,2.6,0.4,5.4-1.7,8.4c-1.5,2.2-3.7,4.3-6.5,6.3C50.8,34,46.7,36.2,42.2,37.9"/>
<path clip-path="url(#SVGID_4_)" fill="none" stroke="#FFFFFF" stroke-width="2" d="M60.2,18.3c-0.5-1.4-1.5-2.6-3-3.6
c-4.2-2.9-10.4-3.8-18.8-2.8c0.1,2.5,0.4,6.4,0.8,11.4c0.3,2.4,0.9,5.4,1.7,9.1c0.5,2.2,0.8,3.5,0.9,3.9c0,0.1,0.1,0.1,0.1,0.1
c3-1.1,6.3-2.9,9.9-5.2C59.1,26.9,61.8,22.6,60.2,18.3z M42.2,37.9c1.3,6.1,2.8,11.3,4.4,15.8l0.1,0c0.1,0.5-0.1,1.2-0.6,2.2
c-0.4,1-0.9,1.5-1.3,1.7c-0.3,0.1-0.6-0.3-1-1.4c-0.8-2.2-1.9-6.1-3.2-11.8c-2.3-10.3-4.1-19.6-5.3-27.9l-0.4-3.1
c-0.1-0.1-0.3-0.3-0.7-0.5c-0.4-0.2-0.7-0.5-0.8-0.9c-0.2-0.6-0.2-1,0.2-1.2c0.4-0.2,1.2-0.3,2.3-0.4c1.2-0.2,2-0.3,2.3-0.4
c9.4-1.5,16.5-0.6,21.2,2.4c1.7,1.1,2.9,2.5,3.5,4.1c1,2.6,0.4,5.4-1.7,8.4c-1.5,2.2-3.7,4.3-6.5,6.3C50.8,34,46.7,36.2,42.2,37.9
z"/>
<path clip-path="url(#SVGID_4_)" fill="#FFFFFF" d="M18.3,38.6c4.2,0.8,7.9,1.2,11.1,1.2v-0.1c0-0.3-0.2-1.4-0.6-3.5
c-0.8-3.8-1.5-7-2.2-9.6c-0.3-1.1-0.9-3-1.8-5.7c-1-3.1-1.7-4.9-2-5.2v-0.1c-4.1,1-7.7,2.5-10.9,4.5c-4.3,2.7-6.5,5.7-6.5,9
C5.5,33.7,9.8,36.9,18.3,38.6 M2.7,59.3c0.5,0.2,1,0.3,1.5,0.3c2.7,0,7.1-2.3,13.4-7c4-3,8.1-6.8,12.1-11.3c-4.8,0-9.4-0.6-14-1.8
c-3.5-0.9-6.4-2.1-8.7-3.6c-3.2-2.1-4.8-4.6-4.8-7.5c0-1.7,0.6-3.3,1.8-5c3.1-4.4,9.2-7.6,18.3-9.6c0.4,0,1.2-0.1,2.3-0.4
c1.1-0.3,1.8-0.4,2.3-0.4c0.4,0,0.7,0.5,0.7,1.5c0,0.1-0.1,0.3-0.4,0.6c-0.3,0.3-0.4,0.5-0.4,0.7c0-0.5,0.9,2.9,2.6,10.3
c1.9,8,3.4,15.3,4.6,21.9c1.1,5.8,1.6,9.7,1.6,11.8c0,0.6-0.1,1-0.4,1c-0.4,0-1-0.4-1.8-1.1c-0.8-0.8-1.3-1.3-1.4-1.8
c-0.1-1-0.1-1.8-0.1-2.3c-0.2-2.5-0.5-5.2-0.9-8c-0.3-1.8-0.4-2.7-0.4-2.7c-4.3,4.2-7.3,7-9,8.3c-7.6,5.9-13.3,8.9-16.9,8.9
c-0.6,0-1.3-0.3-2-0.8c-0.7-0.5-1-1.1-1-1.7c0-0.2,0.1-0.3,0.2-0.3C1.9,59,2.2,59.1,2.7,59.3"/>
<path clip-path="url(#SVGID_4_)" fill="none" stroke="#FFFFFF" stroke-width="2" d="M18.3,38.6c4.2,0.8,7.9,1.2,11.1,1.2v-0.1
c0-0.3-0.2-1.4-0.6-3.5c-0.8-3.8-1.5-7-2.2-9.6c-0.3-1.1-0.9-3-1.8-5.7c-1-3.1-1.7-4.9-2-5.2v-0.1c-4.1,1-7.7,2.5-10.9,4.5
c-4.3,2.7-6.5,5.7-6.5,9C5.5,33.7,9.8,36.9,18.3,38.6z M2.7,59.3c0.5,0.2,1,0.3,1.5,0.3c2.7,0,7.1-2.3,13.4-7
c4-3,8.1-6.8,12.1-11.3c-4.8,0-9.4-0.6-14-1.8c-3.5-0.9-6.4-2.1-8.7-3.6c-3.2-2.1-4.8-4.6-4.8-7.5c0-1.7,0.6-3.3,1.8-5
c3.1-4.4,9.2-7.6,18.3-9.6c0.4,0,1.2-0.1,2.3-0.4c1.1-0.3,1.8-0.4,2.3-0.4c0.4,0,0.7,0.5,0.7,1.5c0,0.1-0.1,0.3-0.4,0.6
c-0.3,0.3-0.4,0.5-0.4,0.7c0-0.5,0.9,2.9,2.6,10.3c1.9,8,3.4,15.3,4.6,21.9c1.1,5.8,1.6,9.7,1.6,11.8c0,0.6-0.1,1-0.4,1
c-0.4,0-1-0.4-1.8-1.1c-0.8-0.8-1.3-1.3-1.4-1.8c-0.1-1-0.1-1.8-0.1-2.3c-0.2-2.5-0.5-5.2-0.9-8c-0.3-1.8-0.4-2.7-0.4-2.7
c-4.3,4.2-7.3,7-9,8.3c-7.6,5.9-13.3,8.9-16.9,8.9c-0.6,0-1.3-0.3-2-0.8c-0.7-0.5-1-1.1-1-1.7c0-0.2,0.1-0.3,0.2-0.3
C1.9,59,2.2,59.1,2.7,59.3z"/>
</g>
</g>
<g>
<path fill="#C12527" d="M87.1,19.8h-4.3v11.8h-3.1V2.3h7.1c2.3,0,4.1,0.6,5.3,1.8c1.2,1.2,1.8,2.8,1.8,4.8v4.3
c0,3.1-1.2,5.2-3.7,6.1l4.7,12.3h-3.4L87.1,19.8z M82.8,17.1h3.9c2.7,0,4.1-1.3,4.1-4V9c0-2.6-1.4-4-4.1-4h-3.9V17.1z"/>
<path fill="#C12527" d="M99.2,25.2V13.1c0-2.1,0.6-3.7,1.8-4.9s3-1.9,5.3-1.9c2.4,0,4.1,0.6,5.3,1.9c1.1,1.2,1.7,2.9,1.7,4.9v7.6
h-11.1v4.4c0,1.3,0.4,2.3,1.2,2.9c0.8,0.6,2.1,1,3.8,1c1.7,0,3.5-0.3,5.3-0.8v2.9c-1.5,0.5-3.2,0.7-5.2,0.7
C101.9,31.8,99.2,29.6,99.2,25.2z M102.2,18.2h8.1v-5c0-2.7-1.3-4.1-4-4.1c-2.7,0-4,1.4-4,4.1V18.2z M110.1,0.2l-2.6,4.7h-2
l1.7-4.7H110.1z"/>
<path fill="#C12527" d="M128.5,6.8h3.1l-5.5,24.8h-4.4l-5.5-24.8h3.2l2.4,11.4l2.1,11.2C124.9,24.6,126.4,17,128.5,6.8z"/>
<path fill="#C12527" d="M135,13.1c0-2.1,0.6-3.7,1.7-4.9c1.2-1.2,2.9-1.8,5.3-1.8c2.4,0,4.1,0.6,5.3,1.8c1.2,1.2,1.7,2.9,1.7,4.9
v12.1c0,2.1-0.6,3.7-1.7,4.9c-1.2,1.2-2.9,1.8-5.3,1.8c-2.4,0-4.2-0.6-5.3-1.8c-1.2-1.2-1.7-2.9-1.7-4.9V13.1z M146,13.1
c0-2.7-1.3-4-4-4c-2.7,0-4,1.3-4,4v12.1c0,2.7,1.3,4.1,4,4.1c2.7,0,4-1.4,4-4.1V13.1z"/>
<path fill="#C12527" d="M154.6,0.2h3.1v31.3h-3.1V0.2z"/>
<path fill="#C12527" d="M170.1,28.9c1.5,0,2.8-0.5,4.2-1.3V6.8h3.1v24.8h-3v-1.2c-1.7,0.8-3.4,1.3-5.2,1.3c-1.8,0-3.2-0.5-4.2-1.6
c-1-1.1-1.6-2.6-1.6-4.6V6.8h3.1v18.4C166.6,27.7,167.8,28.9,170.1,28.9z"/>
<path fill="#C12527" d="M186.5,2.3v4.5h5.5v2.7h-5.5v16.5c0,1,0.2,1.7,0.7,2.2c0.5,0.5,1.2,0.7,2.3,0.7c1,0,2-0.2,3-0.5v2.8
c-1.2,0.3-2.2,0.4-3.3,0.4c-3.9,0-5.8-1.8-5.8-5.5V9.5h-2.7V6.8h2.8l0.9-4.5H186.5z"/>
<path fill="#C12527" d="M197.6,4c-1.3,0-1.9-0.7-1.9-2c0-1.3,0.6-2,1.9-2c1.3,0,1.9,0.7,1.9,2C199.5,3.3,198.9,4,197.6,4z M196.1,7
h3.1v24.6h-3.1V7z"/>
<path fill="#C12527" d="M204.7,13.1c0-2.1,0.6-3.7,1.7-4.9c1.2-1.2,2.9-1.8,5.3-1.8c2.4,0,4.1,0.6,5.3,1.8c1.2,1.2,1.7,2.9,1.7,4.9
v12.1c0,2.1-0.6,3.7-1.7,4.9c-1.2,1.2-2.9,1.8-5.3,1.8c-2.4,0-4.2-0.6-5.3-1.8c-1.2-1.2-1.7-2.9-1.7-4.9V13.1z M215.8,13.1
c0-2.7-1.3-4-4-4c-2.7,0-4,1.3-4,4v12.1c0,2.7,1.3,4.1,4,4.1c2.7,0,4-1.4,4-4.1V13.1z"/>
<path fill="#C12527" d="M227.4,7.9c1.9-0.8,3.7-1.2,5.3-1.2c1.6,0,2.9,0.5,4,1.5c1,1,1.6,2.4,1.6,4.2v19.1h-3.1V12.8
c0-2.1-1.1-3.2-3.2-3.2c-1.4,0-2.8,0.4-4.4,1.1v20.9h-3.1V6.8h3V7.9z"/>
<path fill="#464646" d="M80.4,38.7h8.8c2.4,0,4.2,0.6,5.5,1.7c1.3,1.2,1.9,2.8,1.9,4.9v7.3c0,2.1-0.6,3.8-1.9,4.9
c-1.3,1.2-3.1,1.7-5.5,1.7h-3.5v9.2h-5.3V38.7z M91.4,45.9c0-1.7-0.9-2.6-2.7-2.6h-3v11.5h3c1.8,0,2.7-0.9,2.7-2.7V45.9z"/>
<path fill="#464646" d="M99.9,61.6V49.7c0-2.1,0.6-3.8,1.9-5.1c1.3-1.2,3.2-1.8,5.9-1.8c2.6,0,4.5,0.6,5.8,1.8
c1.2,1.2,1.8,2.9,1.8,5.1v8.4H105v3.2c0,1,0.3,1.8,0.9,2.3c0.6,0.5,1.8,0.7,3.5,0.7c1.7,0,3.5-0.3,5.3-0.8V68
c-1.8,0.5-3.8,0.8-6,0.8C102.8,68.8,99.9,66.4,99.9,61.6z M105,54h5.4v-4.2c0-1.7-0.9-2.6-2.7-2.6c-1.8,0-2.7,0.9-2.7,2.6V54z"/>
<path fill="#464646" d="M129.1,43.1h0.9V48h-1.2c-1.5,0-3,0.4-4.4,1.3v19.3h-5.3V43.2h5V45c0.8-0.6,1.4-0.9,1.7-1.1
C126.9,43.4,128,43.1,129.1,43.1z"/>
<path fill="#464646" d="M146.7,44.7c2-1.1,3.9-1.6,5.8-1.6c1.9,0,3.3,0.5,4.3,1.4c1,0.9,1.5,2.3,1.5,4.2v19.9H153V49.8
c0-1.2-0.6-1.9-1.9-1.9c-1,0-2.1,0.3-3.1,0.9c0.1,0.3,0.1,0.6,0.1,1v18.8h-5.4V49.8c0-1.2-0.6-1.9-1.9-1.9c-1,0-2,0.3-3,0.8v19.8
h-5.3V43.2h5v1.1c1.7-0.8,3.4-1.3,5.1-1.3C144.3,43.1,145.7,43.6,146.7,44.7z"/>
<path fill="#464646" d="M162.7,43.8c1.7-0.6,3.8-0.8,6.6-0.8c2.7,0,4.7,0.6,6,1.8c1.2,1.2,1.9,3,1.9,5.4v18.3h-5v-1.8
c-1.1,1.3-2.7,2-4.8,2c-2,0-3.5-0.5-4.5-1.5c-1-1-1.4-2.6-1.4-4.7V61c0-1.8,0.4-3.2,1.3-4.2c0.8-1,2.2-1.8,4.1-2.3l5.3-1.4v-2.9
c0-0.9-0.3-1.6-0.8-2c-0.5-0.4-1.6-0.6-3.4-0.6c-1.8,0-3.5,0.3-5.2,0.9V43.8z M166.6,61.2v1.3c0,1.5,0.8,2.2,2.3,2.2
c1.2,0,2.2-0.3,3.1-1v-6.4l-3.1,0.9c-1,0.3-1.6,0.6-1.9,1C166.7,59.7,166.6,60.3,166.6,61.2z"/>
<path fill="#464646" d="M186.6,44.4c1.7-0.8,3.4-1.3,5-1.3c1.7,0,3,0.5,4,1.4c1,0.9,1.5,2.3,1.5,4.2v19.9h-5.4V49.8
c0-1.2-0.6-1.9-1.9-1.9c-1,0-2,0.3-3,0.8v19.8h-5.3V43.2h5V44.4z"/>
<path fill="#464646" d="M201.1,61.6V49.7c0-2.1,0.6-3.8,1.9-5.1c1.3-1.2,3.2-1.8,5.9-1.8c2.6,0,4.5,0.6,5.8,1.8
c1.2,1.2,1.8,2.9,1.8,5.1v8.4h-10.3v3.2c0,1,0.3,1.8,0.9,2.3c0.6,0.5,1.8,0.7,3.5,0.7c1.7,0,3.5-0.3,5.3-0.8V68
c-1.8,0.5-3.8,0.8-6,0.8C204.1,68.8,201.1,66.4,201.1,61.6z M206.2,54h5.4v-4.2c0-1.7-0.9-2.6-2.7-2.6c-1.8,0-2.7,0.9-2.7,2.6V54z"
/>
<path fill="#464646" d="M225.4,44.4c1.7-0.8,3.4-1.3,5-1.3c1.7,0,3,0.5,4,1.4c1,0.9,1.5,2.3,1.5,4.2v19.9h-5.4V49.8
c0-1.2-0.6-1.9-1.9-1.9c-1,0-2,0.3-3,0.8v19.8h-5.3V43.2h5V44.4z"/>
<path fill="#464646" d="M246,38.7v4.5h4.5v4.4H246v14.4c0,1.4,0.7,2,2.2,2c0.7,0,1.6-0.2,2.7-0.5v4.7c-1.2,0.4-2.4,0.6-3.6,0.6
c-4.3,0-6.4-2.1-6.4-6.3V47.7h-2.5v-4.4h2.7l1.6-4.5H246z"/>
<path fill="#464646" d="M253.4,61.6V49.7c0-2.1,0.6-3.8,1.9-5.1c1.3-1.2,3.2-1.8,5.9-1.8c2.6,0,4.5,0.6,5.8,1.8
c1.2,1.2,1.8,2.9,1.8,5.1v8.4h-10.3v3.2c0,1,0.3,1.8,0.9,2.3c0.6,0.5,1.8,0.7,3.5,0.7c1.7,0,3.5-0.3,5.3-0.8V68
c-1.8,0.5-3.8,0.8-6,0.8C256.3,68.8,253.4,66.4,253.4,61.6z M258.5,54h5.4v-4.2c0-1.7-0.9-2.6-2.7-2.6c-1.8,0-2.7,0.9-2.7,2.6V54z"
/>
</g>
</svg>
