<?xml version="1.0" encoding="UTF-8"?>
<!-- Created with Inkscape (http://www.inkscape.org/) -->
<svg width="150.11mm" height="120.72mm" version="1.1" viewBox="0 0 150.11 120.72" xml:space="preserve" xmlns="http://www.w3.org/2000/svg"><g transform="translate(-16.369 -116.75)"><text x="84.209679" y="205.90292" fill="#f06600" font-family="Dosis" font-size="3.175px" stroke="#173a92" stroke-width="12.125" xml:space="preserve"><tspan x="84.209679" y="205.90292" stroke-width="12.125"/></text><text x="79.968521" y="172.28178" fill="#f06600" font-family="Dosis" font-size="3.175px" stroke="#173a92" stroke-width="12.125" xml:space="preserve"><tspan x="79.968521" y="172.28178" stroke-width="12.125"/></text><path d="m16.372 237.35c-0.0056-0.0439-0.0024-27.179 0.0072-60.3l0.01743-60.221 25.61-0.0784 0.32069 0.43802c0.17638 0.24091 1.2057 1.8379 2.2874 3.5488s2.7003 4.2593 3.5969 5.6631 2.2316 3.5008 2.9666 4.66c0.73499 1.1592 2.816 4.4254 4.6245 7.2584 1.8085 2.833 4.1286 6.4789 5.1558 8.102 1.0272 1.6232 2.9235 4.6023 4.2139 6.6203s4.9926 7.8327 8.227 12.922c3.2344 5.0888 6.7284 10.572 7.7643 12.184l1.8834 2.9318-0.52659 0.81704c-0.28963 0.44938-2.4249 3.6885-4.745 7.198-2.3201 3.5096-5.2466 7.9423-6.5032 9.8506-1.2566 1.9083-2.3856 3.4664-2.3856 3.4664s-1.373-1.8738-5.1652-7.8932c-4.5856-7.2789-6.7165-10.64-7.5351-11.885-0.63182-0.96071-2.0019-3.1185-3.697-5.8227-0.385-0.61417-1.506-2.38-2.4911-3.9241-0.98509-1.5441-2.9755-4.7172-4.4232-7.0513-1.4477-2.3342-2.686-4.2474-2.7518-4.2516-0.0658-4e-3 -0.12418 13.757-0.12973 30.581-0.01192 36.136-0.04182 45.18-0.14944 45.201-0.31392 0.0624-26.164 0.0469-26.172-0.0157zm44.959-10.87-0.04203-10.985 7.737 4e-5v3.9892l44.587-0.0808 0.0896-3.9084h7.8169l-0.0898 21.935-60.057 0.036zm78.75 10.811c-0.0375-0.0993-0.0858-17.228-0.10739-38.064l-0.0392-37.883-2.5787 4.1436c-1.4183 2.279-2.8256 4.5384-3.1273 5.0209-0.50525 0.80804-4.9539 7.8514-6.4237 10.17-0.34779 0.54871-1.1993 1.8923-1.8922 2.9858-0.79821 1.2596-1.4408 1.8738-1.4408 1.8738s-4.4708-2.98-9.7141-6.4825c-6.6573-4.4471-9.4472-6.5924-9.4472-6.5924s1.0027-1.6835 3.438-5.4645c0.7629-1.1845 1.8793-2.9432 2.4809-3.9084 1.5013-2.4084 4.6453-7.3815 7.5639-11.964 1.3411-2.1057 3.1405-4.9413 3.9987-6.3012 0.85819-1.36 2.8897-4.5544 4.5144-7.0988s3.9332-6.1696 5.1299-8.056 2.7037-4.2553 3.349-5.2643c1.3666-2.1367 3.4574-5.4251 4.285-6.7393l0.57726-0.91668 25.668 6e-3 0.0597 1.7116c0.0328 0.94141 0.0743 28.07 0.092 60.286 0.0308 55.83 0.0191 58.578-0.24893 58.649-0.15468 0.0411-6.0835 0.0737-13.175 0.0723-9.4472-2e-3 -12.912-0.0507-12.962-0.18301zm-64.079-36.3c-0.06939-0.26534-0.04863-0.32763 0.06975-0.20925 0.0927 0.0927 0.13716 0.26271 0.0988 0.3778-0.03983 0.11947-0.11214 0.0472-0.16855-0.16855zm4.4621-8.2549c0.04489-0.11698 0.10215-0.2127 0.12725-0.2127 0.02509 0 0.08236 0.0957 0.12725 0.2127 0.04489 0.11699-0.01237 0.2127-0.12725 0.2127s-0.17214-0.0957-0.12725-0.2127zm4.9928-6.3349c0-0.0331 0.12563-0.15875 0.27917-0.27917 0.25302-0.19843 0.25866-0.19278 0.06023 0.0602-0.2084 0.26573-0.3394 0.35023-0.3394 0.21894z" fill="#173a92"/><path d="m67.432 210.26 27.11-40.953 28.733 18.849-17.94 29.303-27.368-3e-3z" fill="#eab148"/><path d="m67.432 210.26 27.111-40.953 3.8469 32.023z" fill-opacity=".15"/></g></svg>
