<?xml version="1.0" encoding="UTF-8"?>
<svg version="1.1" viewBox="0 0 149.79 114.76" xml:space="preserve" xmlns="http://www.w3.org/2000/svg"><defs><style>
      .cls-1 {
        fill: #0e181c;
      }

      .cls-2 {
        fill: #fff;
      }

      .cls-3 {
        fill: #1d3d91;
      }
    </style></defs><path d="m0.74609 0v6.6582c9.9753 0 16.876-1.0842 15.879 11.219l-1.332 18.086h0.01758l-5.3418 70.367c0 1.7456-2.0749 1.7363-3.6543 1.7363h-6.3145v6.6562h32.584v-6.6562h-5.9102c-6.7334-0.0831-5.8916-2.5693-5.2266-11.381l5.5684-64.668 16.871 39.037 16.57-25.973-18.895-45.082zm99.574 0-16.676 42.213 8.3516 5.6855 9.7363-24.193 6.1543 82.543c0 1.7456-0.99094 1.6552-9.9688 1.7383v6.6562h51.873v-6.6562h-9.4805c-4.2395 0-2.5757-2.1586-4.2383-16.789l-4.1562-55.121-1.998-26.09c0.33251-3.3251 0.83625-3.3281 3.3301-3.3281h6.1523v-6.6582z" fill="#173a92" stroke-width="380.95"/><text x="67.096565" y="214.72908" fill="#f06600" font-family="Dosis" font-size="3.175px" stroke="#173a92" stroke-width="12.125" xml:space="preserve"><tspan x="67.096565" y="214.72908" stroke-width="12.125"/></text><text x="62.855408" y="181.10794" fill="#f06600" font-family="Dosis" font-size="3.175px" stroke="#173a92" stroke-width="12.125" xml:space="preserve"><tspan x="62.855408" y="181.10794" stroke-width="12.125"/></text><g transform="matrix(1.0696 0 0 1.1099 -31.224 -148.38)"><path d="m67.432 210.26 27.11-40.953 28.733 18.849-17.94 29.303-8.6231 11.575-18.745-11.578z" fill="#eab148"/><path d="m67.432 210.26 27.111-40.953 3.8469 32.023z" fill-opacity=".15"/></g></svg>
