<?xml version="1.0" encoding="UTF-8" standalone="no"?>

<svg
   viewBox="0 0 150.10957 120.72456"
   version="1.1"
   id="svg1"
   xml:space="preserve"
   sodipodi:docname="monptellier-municipales.svg"
   xmlns:sodipodi="http://sodipodi.sourceforge.net/DTD/sodipodi-0.dtd"
   xmlns="http://www.w3.org/2000/svg"
   xmlns:svg="http://www.w3.org/2000/svg"><sodipodi:namedview
     id="namedview1"
     pagecolor="#ffffff"
     bordercolor="#000000"
     borderopacity="0.25" /><defs
     id="defs1" /><g
     id="layer1"
     transform="translate(-16.368973,-116.75196)"><text
       xml:space="preserve"
       style="font-size:3.175px;font-family:Dosis;-inkscape-font-specification:Dosis;text-align:start;writing-mode:lr-tb;direction:ltr;text-anchor:start;fill:#f06600;stroke:#173a92;stroke-width:12.125"
       x="84.209679"
       y="205.90292"
       id="text1"><tspan
         sodipodi:role="line"
         id="tspan1"
         style="stroke-width:12.125"
         x="84.209679"
         y="205.90292" /></text><text
       xml:space="preserve"
       style="font-size:3.175px;font-family:Dosis;-inkscape-font-specification:Dosis;text-align:start;writing-mode:lr-tb;direction:ltr;text-anchor:start;fill:#f06600;stroke:#173a92;stroke-width:12.125"
       x="79.968521"
       y="172.28178"
       id="text3"><tspan
         sodipodi:role="line"
         id="tspan3"
         style="stroke-width:12.125"
         x="79.968521"
         y="172.28178" /></text><path
       style="fill:#173a92;fill-opacity:1"
       d="m 16.371729,237.35153 c -0.0056,-0.0439 -0.0024,-27.17904 0.0072,-60.30037 l 0.01743,-60.22061 12.805071,-0.0392 12.805071,-0.0392 0.320692,0.43802 c 0.17638,0.24091 1.205698,1.83786 2.287372,3.54876 1.081674,1.7109 2.700281,4.25931 3.596904,5.66313 0.896623,1.40382 2.231579,3.50079 2.96657,4.65995 0.734991,1.15915 2.816018,4.42542 4.624506,7.25838 1.808487,2.83295 4.128618,6.47887 5.155847,8.10203 1.027229,1.62317 2.923484,4.60229 4.2139,6.62028 1.290416,2.01799 4.992577,7.83267 8.227025,12.92151 3.234447,5.08884 4.810136,7.59518 5.846027,9.20766 l 1.883442,2.93179 -0.526593,0.81704 c -0.289631,0.44938 -2.424872,3.6885 -4.74499,7.19804 -2.320118,3.50955 -5.246563,7.94234 -6.503211,9.85065 -1.256649,1.90832 -2.385561,3.46644 -2.385561,3.46644 0,0 -1.372998,-1.87377 -5.165155,-7.89324 -4.585581,-7.27893 -4.79823,-7.66326 -5.616875,-8.90804 -0.63182,-0.96071 -2.001873,-3.11848 -3.697035,-5.82266 -0.385004,-0.61417 -1.505989,-2.37999 -2.491078,-3.92406 -0.98509,-1.54406 -2.975543,-4.71715 -4.423231,-7.0513 -1.447687,-2.33416 -2.685999,-4.24737 -2.751803,-4.25159 -0.0658,-0.004 -0.124183,13.75733 -0.129731,30.58122 -0.01192,36.1358 -0.04182,45.17973 -0.149437,45.20113 -0.313923,0.0624 -26.164272,0.0469 -26.172327,-0.0157 z m 44.958521,-10.86963 -0.04203,-10.98531 3.868476,2e-5 3.868477,2e-5 v 1.99462 1.99461 l 22.29359,-0.0404 22.293597,-0.0404 0.0448,-1.95418 0.0448,-1.95418 h 3.90847 3.90847 l -0.0449,10.96733 -0.0449,10.96733 -30.028396,0.018 -30.028394,0.018 z m 78.75033,10.81086 c -0.0375,-0.0993 -0.0858,-17.22789 -0.10739,-38.06356 l -0.0392,-37.88305 -2.57867,4.14355 c -3.04335,4.93924 -4.59494,6.54239 -7.70145,11.44191 -0.79821,1.25957 -1.4408,1.87378 -1.4408,1.87378 0,0 -4.47084,-2.98004 -9.71411,-6.48253 -6.65732,-4.44706 -9.44716,-6.59244 -9.44716,-6.59244 3.78866,-5.95001 5.95341,-8.65003 9.74111,-14.60204 1.34107,-2.10573 3.14046,-4.94128 3.99866,-6.30123 0.85819,-1.35995 2.88969,-4.55443 4.51445,-7.09885 1.62476,-2.54442 3.9332,-6.16963 5.12987,-8.05601 1.19667,-1.88638 2.70374,-4.25532 3.34904,-5.26431 1.36655,-2.13671 3.45735,-5.42512 4.28495,-6.73934 l 0.57726,-0.91668 12.83389,0.003 12.8339,0.003 0.0597,1.71165 c 0.0328,0.94141 0.0743,28.06999 0.092,60.28573 0.0308,55.82984 0.0191,58.57758 -0.24893,58.64884 -0.15468,0.0411 -6.08349,0.0737 -13.17512,0.0723 -9.44723,-0.002 -12.91209,-0.0507 -12.96202,-0.18301 z m -64.079194,-36.3001 c -0.06939,-0.26534 -0.04863,-0.32763 0.06975,-0.20925 0.0927,0.0927 0.137158,0.26271 0.0988,0.3778 -0.03983,0.11947 -0.112137,0.0472 -0.168546,-0.16855 z m 4.462086,-8.2549 c 0.04489,-0.11698 0.102153,-0.2127 0.127249,-0.2127 0.02509,0 0.08236,0.0957 0.127248,0.2127 0.04489,0.11699 -0.01237,0.2127 -0.127248,0.2127 -0.114878,0 -0.17214,-0.0957 -0.127249,-0.2127 z m 4.992755,-6.33487 c 0,-0.0331 0.125626,-0.15875 0.279168,-0.27917 0.253016,-0.19843 0.258658,-0.19278 0.06023,0.0602 -0.208399,0.26573 -0.339398,0.35023 -0.339398,0.21894 z"
       id="path5"
       sodipodi:nodetypes="sscccssssssssscssscssssscssssccccccccccccccccccscsscscsssssscccscscccsssssssssssssss" /><g
       id="g10"
       transform="matrix(1.0696223,0,0,1.1098946,-4.9593271,-26.410894)"><path
         style="fill:#eab148;fill-opacity:1;stroke:none;stroke-width:7.86503"
         d="m 67.431859,210.25783 27.110448,-40.953 28.733113,18.84877 -17.94036,29.30343 -27.367743,-0.003 z"
         id="path9-1"
         sodipodi:nodetypes="cccccc" /><path
         style="fill:#000000;fill-opacity:0.15;stroke:none;stroke-width:7.86503"
         d="m 67.431594,210.25783 27.111155,-40.953 3.846933,32.02286 z"
         id="path10-9"
         sodipodi:nodetypes="cccc" /></g></g></svg>
